<svg id="svg" xmlns="http://www.w3.org/2000/svg" xmlns:xlink="http://www.w3.org/1999/xlink" width="400" height="533.3333333333334" viewBox="0, 0, 400,533.3333333333334"><g id="svgg"><path id="path0" d="M0.000 7.400 L 0.000 14.800 1.976 14.800 C 4.233 14.800,4.577 15.129,4.234 16.958 C 4.006 18.174,1.503 20.400,0.364 20.400 C 0.163 20.400,0.014 22.599,0.032 25.300 C 0.049 27.995,0.161 29.930,0.280 29.600 C 0.400 29.270,0.726 28.460,1.006 27.800 C 1.285 27.140,1.618 26.285,1.745 25.900 C 1.884 25.476,2.378 25.200,2.997 25.200 C 3.752 25.200,4.122 24.911,4.410 24.100 C 5.076 22.219,5.433 21.814,6.838 21.348 C 8.584 20.770,8.867 19.706,7.324 19.529 C 5.491 19.319,5.460 16.721,7.276 15.600 C 9.474 14.244,12.955 14.600,13.135 16.200 C 13.210 16.860,13.417 17.580,13.595 17.800 C 14.330 18.705,14.535 24.413,13.852 24.920 C 13.202 25.403,12.562 27.775,12.131 31.298 C 11.867 33.454,12.381 34.400,13.816 34.400 C 14.320 34.400,14.798 34.593,14.876 34.829 C 15.082 35.445,19.396 35.467,20.133 34.855 C 20.470 34.576,21.792 34.248,23.072 34.125 C 25.719 33.871,26.772 32.987,26.797 31.000 C 26.823 28.858,28.013 24.638,28.837 23.760 C 29.280 23.290,29.781 22.386,29.953 21.752 C 30.261 20.613,30.298 20.600,33.232 20.608 C 36.681 20.617,37.168 20.262,37.187 17.726 C 37.214 14.145,39.998 12.074,40.314 15.400 C 40.377 16.060,40.588 16.960,40.784 17.400 C 41.385 18.750,41.582 23.291,41.078 24.183 C 40.825 24.632,40.402 26.080,40.139 27.400 C 39.876 28.720,39.542 30.267,39.396 30.837 C 38.632 33.826,43.015 34.965,50.887 33.823 C 53.822 33.397,54.248 32.857,54.584 29.144 C 54.846 26.248,54.811 26.053,53.934 25.439 C 53.138 24.881,53.007 24.445,53.004 22.344 C 52.999 19.458,53.776 18.511,55.137 19.743 C 55.648 20.205,56.012 20.304,56.184 20.026 C 56.329 19.792,56.932 19.597,57.524 19.594 C 58.892 19.586,59.788 19.027,59.411 18.417 C 59.206 18.086,58.356 18.027,56.557 18.219 C 53.410 18.556,52.800 18.166,52.800 15.813 C 52.800 13.011,53.160 12.885,61.000 12.947 L 67.800 13.000 67.800 15.878 C 67.800 17.645,67.993 18.949,68.300 19.258 C 68.973 19.934,68.935 22.617,68.237 23.714 C 67.617 24.689,66.567 31.617,66.906 32.499 C 67.483 34.003,73.698 34.311,76.600 32.981 C 77.260 32.678,78.700 32.378,79.800 32.315 L 81.800 32.200 82.119 29.600 C 82.294 28.170,82.474 26.100,82.519 25.000 L 82.600 23.000 81.000 22.800 C 79.720 22.640,79.374 22.420,79.272 21.700 C 79.202 21.205,78.977 20.800,78.772 20.800 C 78.270 20.800,78.297 18.663,78.806 18.154 C 79.081 17.879,79.008 17.338,78.580 16.481 C 77.454 14.223,77.917 12.655,79.800 12.350 C 82.165 11.967,94.915 11.968,95.526 12.350 C 96.440 12.922,96.386 24.911,95.465 25.928 C 95.047 26.390,94.655 27.645,94.520 28.956 L 94.289 31.194 95.812 31.831 C 97.597 32.576,108.083 32.267,108.756 31.449 C 109.802 30.177,109.420 24.873,108.189 23.589 C 107.081 22.433,106.998 22.129,106.968 19.161 C 106.949 17.306,106.740 15.780,106.468 15.508 C 105.502 14.542,105.919 12.649,107.265 11.883 C 108.140 11.385,108.653 11.293,108.943 11.583 C 109.475 12.115,112.673 12.129,113.000 11.600 C 114.004 9.976,117.200 11.521,117.200 13.631 C 117.200 15.587,116.759 15.865,113.030 16.262 L 109.860 16.600 109.781 18.500 C 109.679 20.951,110.890 21.137,113.027 19.000 C 114.812 17.214,115.867 17.173,116.307 18.873 C 116.736 20.530,117.499 20.756,117.840 19.328 C 118.198 17.833,118.736 17.200,119.649 17.200 C 120.062 17.200,120.400 17.020,120.400 16.800 C 120.400 16.580,120.076 16.400,119.680 16.400 C 118.538 16.400,118.000 15.568,118.000 13.800 C 118.000 11.690,118.534 11.200,120.831 11.200 C 123.244 11.200,123.641 11.722,123.784 15.082 C 123.847 16.577,124.030 18.466,124.190 19.281 C 124.426 20.480,124.309 21.005,123.571 22.040 C 122.865 23.032,122.620 24.029,122.478 26.483 C 122.220 30.932,123.220 32.059,127.397 32.022 C 128.939 32.008,130.830 32.020,131.600 32.050 C 132.370 32.079,133.900 31.943,135.000 31.747 L 137.000 31.392 137.297 27.824 C 137.539 24.919,137.484 24.135,136.997 23.597 C 136.669 23.234,136.400 22.748,136.400 22.517 C 136.400 22.287,136.130 21.874,135.800 21.600 C 134.982 20.921,135.022 18.060,135.862 17.131 C 136.478 16.451,136.478 16.349,135.862 15.669 C 135.007 14.724,134.983 11.878,135.823 11.181 C 136.282 10.800,138.474 10.655,144.123 10.632 L 151.800 10.600 151.935 11.800 C 152.010 12.460,152.264 13.234,152.501 13.520 C 152.818 13.903,152.749 14.220,152.241 14.720 C 151.592 15.360,151.521 15.359,151.031 14.700 C 150.335 13.762,149.941 13.832,149.051 15.053 C 148.027 16.458,149.401 18.166,150.836 17.270 C 151.995 16.546,152.879 17.342,152.720 18.966 C 152.628 19.910,152.304 20.330,151.344 20.753 C 148.539 21.989,149.024 31.200,151.893 31.200 C 152.136 31.200,152.869 31.506,153.521 31.880 C 154.574 32.485,155.034 32.506,157.653 32.067 C 159.274 31.795,161.320 31.473,162.200 31.350 C 164.156 31.078,164.800 30.322,164.800 28.297 C 164.800 27.260,165.131 26.313,165.800 25.436 C 166.350 24.714,166.800 23.750,166.800 23.293 C 166.800 22.836,167.340 21.922,168.000 21.262 C 168.786 20.476,169.200 19.658,169.200 18.893 C 169.200 17.722,169.989 16.738,171.300 16.273 C 172.627 15.803,172.115 14.800,170.547 14.800 C 167.525 14.800,165.935 16.636,165.524 20.600 C 165.447 21.345,165.172 21.800,164.800 21.800 C 164.070 21.800,163.745 19.387,163.777 14.207 L 163.800 10.615 165.989 10.298 C 167.193 10.124,171.063 10.030,174.589 10.091 L 181.000 10.200 181.092 15.281 C 181.146 18.272,181.022 20.463,180.792 20.605 C 180.576 20.738,180.400 21.906,180.400 23.200 C 180.400 24.494,180.220 25.664,180.000 25.800 C 179.038 26.395,179.583 28.702,180.975 29.924 C 182.378 31.157,186.868 32.099,188.001 31.399 C 188.256 31.242,189.756 30.997,191.333 30.856 L 194.200 30.600 194.231 26.991 C 194.254 24.313,194.437 23.115,194.940 22.347 C 195.599 21.342,195.489 20.000,194.747 20.000 C 194.545 20.000,194.209 20.450,194.000 21.000 C 192.976 23.694,191.831 21.516,192.120 17.423 C 192.272 15.255,192.189 13.626,191.885 12.819 C 191.500 11.801,191.525 11.369,192.021 10.485 L 192.628 9.400 200.614 9.153 C 205.664 8.997,208.784 9.052,209.100 9.302 C 210.090 10.086,209.766 18.603,208.700 19.829 C 207.964 20.675,207.797 21.351,207.786 23.532 C 207.777 25.163,207.546 26.549,207.191 27.098 C 204.880 30.671,215.251 32.866,220.319 29.877 L 221.638 29.098 221.367 26.249 C 221.218 24.682,220.940 23.097,220.748 22.726 C 219.642 20.586,220.718 18.221,222.634 18.580 C 223.805 18.800,224.000 18.726,224.000 18.065 C 224.000 17.640,224.733 16.631,225.628 15.822 C 227.319 14.294,227.303 13.200,225.589 13.200 C 224.439 13.200,221.648 14.859,221.861 15.416 C 222.126 16.104,221.233 16.593,220.695 16.055 C 220.380 15.740,220.453 15.405,220.954 14.851 C 221.379 14.381,221.480 14.027,221.215 13.938 C 220.566 13.722,220.276 11.155,220.758 9.900 L 221.180 8.800 226.147 8.800 C 231.652 8.800,231.600 8.774,231.600 11.553 C 231.600 12.371,231.400 13.240,231.155 13.485 C 230.522 14.118,231.076 14.800,232.224 14.800 C 233.253 14.800,233.705 12.759,232.800 12.200 C 230.837 10.987,232.892 8.319,235.668 8.478 L 237.800 8.600 237.658 13.400 C 237.527 17.838,237.447 18.260,236.586 19.000 C 235.735 19.732,235.645 20.173,235.528 24.194 L 235.400 28.587 236.561 29.145 C 238.268 29.964,242.467 30.184,245.735 29.625 C 249.649 28.955,249.749 28.876,250.132 26.159 C 250.315 24.864,250.656 23.574,250.889 23.292 C 251.123 23.011,251.243 22.740,251.157 22.690 C 251.071 22.641,250.640 22.401,250.200 22.159 C 249.231 21.624,248.842 17.914,249.653 16.937 C 249.978 16.544,250.130 15.084,250.092 12.689 C 250.060 10.581,250.218 8.820,250.467 8.520 C 250.998 7.879,259.616 7.796,262.804 8.401 C 264.308 8.686,265.071 8.673,265.453 8.356 C 266.585 7.417,267.249 8.268,267.121 10.496 C 266.994 12.698,265.939 13.576,265.672 11.700 C 265.511 10.565,264.800 10.514,264.800 11.637 C 264.800 12.144,264.478 12.559,263.984 12.688 C 262.634 13.041,263.343 13.787,265.231 14.000 C 266.885 14.187,267.000 14.278,267.000 15.400 C 267.000 16.245,266.827 16.562,266.415 16.472 C 264.436 16.038,263.923 26.239,265.835 28.030 C 267.054 29.173,277.761 29.429,279.065 28.346 C 280.074 27.508,279.648 21.296,278.480 19.811 C 276.685 17.529,277.726 12.549,279.829 13.356 C 280.337 13.551,280.430 13.917,280.235 14.955 C 280.023 16.086,280.112 16.336,280.791 16.514 C 281.278 16.641,281.600 17.058,281.600 17.563 C 281.600 18.023,281.757 18.400,281.950 18.400 C 282.413 18.400,282.812 16.333,282.546 15.314 C 282.222 14.078,284.107 12.800,286.254 12.800 C 287.214 12.800,288.000 12.620,288.000 12.400 C 288.000 12.180,287.190 12.000,286.200 12.000 C 285.210 12.000,284.400 11.844,284.400 11.652 C 284.400 10.822,281.469 10.809,280.890 11.636 C 279.660 13.392,278.200 12.503,278.200 10.000 L 278.200 7.800 284.790 7.690 C 288.415 7.629,291.556 7.404,291.770 7.190 C 292.340 6.620,293.831 6.714,294.360 7.352 C 295.342 8.535,294.618 16.328,293.410 17.590 C 292.375 18.670,292.356 18.779,292.624 22.248 C 293.027 27.453,293.078 27.490,299.736 27.406 C 305.631 27.331,306.000 27.228,306.000 25.661 C 306.000 25.060,306.363 23.856,306.808 22.985 L 307.615 21.401 306.608 20.668 C 305.506 19.865,305.496 16.153,306.592 14.800 C 306.860 14.470,307.190 13.885,307.327 13.500 C 307.639 12.619,308.644 12.593,309.125 13.452 C 309.454 14.040,309.610 14.016,310.687 13.220 C 312.484 11.892,314.162 12.205,314.325 13.900 C 314.492 15.627,315.508 15.627,315.675 13.900 C 315.795 12.655,315.884 12.592,317.800 12.400 C 320.765 12.104,320.607 11.000,317.600 11.000 L 315.400 11.000 315.400 9.000 C 315.400 6.718,317.160 5.916,318.837 7.434 C 319.548 8.077,319.650 8.079,320.331 7.462 C 322.232 5.742,324.904 8.134,323.100 9.941 C 322.787 10.255,322.600 11.591,322.600 13.521 C 322.600 16.333,322.531 16.600,321.800 16.600 C 320.220 16.600,319.935 17.131,320.222 19.538 C 320.370 20.782,320.651 21.971,320.846 22.180 C 321.041 22.389,321.200 23.040,321.200 23.627 C 321.200 25.985,330.152 28.419,331.400 26.400 C 331.536 26.180,332.141 26.000,332.744 26.000 C 334.293 26.000,334.800 25.312,334.800 23.213 C 334.800 21.923,335.094 20.953,335.800 19.914 C 336.350 19.105,336.800 18.185,336.800 17.870 C 336.800 17.555,337.062 17.080,337.383 16.814 C 337.750 16.509,337.887 15.933,337.751 15.256 C 337.384 13.418,338.446 12.900,343.245 12.581 L 347.491 12.298 348.145 13.611 C 348.892 15.107,348.997 16.631,348.381 17.012 C 348.118 17.174,348.100 17.445,348.333 17.736 C 348.537 17.991,348.833 19.640,348.990 21.400 C 349.336 25.269,349.852 26.000,352.238 26.000 C 353.181 26.000,354.064 26.180,354.200 26.400 C 354.574 27.006,358.581 26.879,359.868 26.220 C 360.490 25.902,361.288 25.558,361.641 25.456 C 362.089 25.326,362.364 24.570,362.555 22.935 C 362.915 19.860,364.230 17.092,365.186 17.395 C 365.571 17.518,366.115 17.344,366.393 17.009 C 366.671 16.674,367.103 16.400,367.353 16.400 C 367.603 16.400,368.032 16.040,368.307 15.600 C 368.582 15.160,369.051 14.800,369.349 14.800 C 369.648 14.800,370.403 14.398,371.027 13.907 C 371.998 13.143,372.656 13.013,375.581 13.007 L 379.000 13.000 379.000 14.800 C 379.000 16.418,378.899 16.614,378.000 16.734 C 374.737 17.171,376.767 25.007,380.365 25.864 C 380.934 25.999,381.651 26.309,381.959 26.553 C 382.297 26.821,383.949 26.956,386.159 26.895 C 390.452 26.777,391.200 26.256,391.200 23.389 C 391.200 21.349,392.448 18.213,393.474 17.675 C 394.929 16.913,396.880 16.708,397.834 17.218 C 399.823 18.283,400.000 17.559,400.000 8.351 L 400.000 0.000 200.000 0.000 L 0.000 0.000 0.000 7.400 M302.720 7.280 C 303.323 7.883,303.350 10.890,302.757 11.483 C 302.433 11.807,302.443 12.319,302.796 13.388 C 303.417 15.269,302.516 16.537,300.844 16.138 C 298.959 15.689,298.800 15.324,298.800 11.431 C 298.800 7.368,299.070 6.800,301.000 6.800 C 301.682 6.800,302.456 7.016,302.720 7.280 M313.824 7.752 C 314.477 10.357,314.012 10.960,311.273 11.057 C 309.884 11.106,308.497 11.354,308.191 11.608 C 306.810 12.754,306.138 8.995,307.462 7.531 C 308.575 6.302,313.502 6.472,313.824 7.752 M329.920 7.280 C 330.681 8.041,330.496 10.189,329.600 11.000 C 328.564 11.938,328.590 12.314,329.700 12.472 C 331.838 12.776,330.870 15.000,328.600 15.000 C 326.335 15.000,325.665 13.876,327.030 12.367 C 327.689 11.639,327.688 11.560,327.015 10.816 C 325.277 8.896,328.100 5.460,329.920 7.280 M274.313 11.606 C 274.460 16.527,274.058 18.558,272.905 18.725 C 271.399 18.943,269.170 14.560,270.400 13.800 C 270.620 13.664,270.800 12.429,270.800 11.056 C 270.800 8.210,271.255 7.511,272.998 7.682 L 274.200 7.800 274.313 11.606 M338.720 8.080 C 339.255 8.615,339.364 9.856,338.900 10.129 C 336.811 11.359,334.316 10.381,335.107 8.644 C 335.631 7.494,337.796 7.156,338.720 8.080 M350.300 9.033 C 349.919 9.415,349.155 8.797,349.439 8.338 C 349.607 8.064,349.831 8.071,350.118 8.358 C 350.354 8.594,350.436 8.898,350.300 9.033 M358.806 8.608 C 359.219 9.105,359.178 9.362,358.576 10.026 C 357.133 11.621,354.654 10.221,356.016 8.581 C 356.645 7.823,358.167 7.837,358.806 8.608 M246.237 12.903 C 246.275 17.357,245.817 18.777,244.703 17.663 C 244.087 17.047,242.513 17.071,242.285 17.700 C 242.147 18.078,241.919 18.091,241.351 17.756 C 240.680 17.360,240.615 16.889,240.740 13.356 C 240.909 8.557,241.060 8.329,243.964 8.482 L 246.200 8.600 246.237 12.903 M216.955 11.008 C 216.931 12.104,216.890 13.360,216.865 13.800 C 216.840 14.240,216.920 15.510,217.043 16.623 C 217.314 19.071,216.761 19.710,214.528 19.526 L 213.000 19.400 212.886 14.857 C 212.764 9.956,212.955 9.358,214.729 9.080 C 216.852 8.747,217.003 8.878,216.955 11.008 M343.800 10.000 C 343.606 10.313,343.376 10.336,343.110 10.070 C 342.890 9.850,342.840 9.458,343.000 9.200 C 343.194 8.887,343.424 8.864,343.690 9.130 C 343.910 9.350,343.960 9.742,343.800 10.000 M387.744 9.797 C 387.871 10.130,387.591 10.750,387.111 11.197 C 386.193 12.052,385.200 12.262,385.200 11.600 C 385.200 11.380,384.941 11.200,384.624 11.200 C 383.780 11.200,383.458 10.453,384.015 9.782 C 384.663 9.001,387.442 9.012,387.744 9.797 M188.712 14.841 C 188.836 19.971,188.367 21.264,186.889 19.864 C 186.510 19.506,185.660 18.771,185.000 18.231 C 183.943 17.367,183.860 17.153,184.300 16.431 C 184.896 15.453,184.969 12.800,184.400 12.800 C 183.831 12.800,183.904 11.056,184.498 10.462 C 184.790 10.170,185.742 10.013,186.798 10.082 L 188.600 10.200 188.712 14.841 M159.782 10.900 C 159.868 11.175,160.053 13.312,160.193 15.648 C 160.494 20.698,160.183 21.320,157.451 21.121 L 155.800 21.000 155.712 16.200 C 155.603 10.270,155.556 10.400,157.800 10.400 C 158.910 10.400,159.687 10.596,159.782 10.900 M131.600 11.400 C 131.928 11.795,132.115 13.607,132.149 16.700 L 132.200 21.400 130.470 21.524 C 128.125 21.693,127.600 21.154,127.600 18.575 C 127.600 17.405,127.420 16.336,127.200 16.200 C 126.534 15.788,126.727 12.344,127.462 11.531 C 128.279 10.629,130.891 10.546,131.600 11.400 M198.472 12.757 C 197.949 13.688,197.196 14.415,196.599 14.565 C 195.892 14.742,195.600 15.087,195.600 15.746 C 195.600 16.257,195.240 17.002,194.800 17.400 C 193.970 18.151,193.722 19.200,194.374 19.200 C 195.475 19.200,196.865 18.281,197.237 17.307 L 197.660 16.200 198.463 17.300 C 199.488 18.704,200.000 18.697,200.000 17.280 C 200.000 15.725,200.677 15.200,202.680 15.200 C 203.626 15.200,204.400 15.020,204.400 14.800 C 204.400 14.580,203.519 14.400,202.443 14.400 C 200.367 14.400,200.000 14.065,200.000 12.167 C 200.000 10.772,199.474 10.975,198.472 12.757 M101.092 12.831 C 101.212 13.288,101.734 13.823,102.252 14.020 C 103.061 14.327,103.194 14.648,103.191 16.289 C 103.189 17.340,103.235 19.190,103.294 20.400 L 103.400 22.600 101.924 22.723 C 99.906 22.890,99.003 21.571,99.301 18.887 C 99.416 17.849,99.373 16.010,99.205 14.800 C 99.038 13.590,98.978 12.465,99.074 12.300 C 99.450 11.650,100.882 12.027,101.092 12.831 M74.499 13.100 C 76.741 15.618,74.878 24.649,72.589 22.360 C 71.913 21.684,70.906 14.144,71.340 13.012 C 71.661 12.175,73.727 12.232,74.499 13.100 M253.500 13.076 C 252.399 13.364,252.654 14.400,253.826 14.400 C 255.015 14.400,256.400 13.747,256.400 13.186 C 256.400 12.797,254.798 12.736,253.500 13.076 M358.321 14.871 C 358.437 16.667,358.384 16.770,357.018 17.418 C 355.150 18.305,354.400 17.735,354.400 15.431 C 354.400 12.026,358.103 11.497,358.321 14.871 M48.720 16.200 C 48.787 17.740,49.012 19.171,49.220 19.380 C 50.670 20.831,49.026 23.110,46.404 23.283 L 44.632 23.400 44.339 21.800 C 43.973 19.800,43.916 14.685,44.250 13.814 C 44.445 13.305,44.951 13.188,46.550 13.281 L 48.600 13.400 48.720 16.200 M351.000 14.800 C 351.000 15.313,350.775 15.808,350.500 15.900 C 349.887 16.104,349.426 15.029,349.757 14.167 C 350.109 13.250,351.000 13.704,351.000 14.800 M35.924 15.930 C 36.105 18.435,35.603 18.825,32.243 18.794 C 30.679 18.780,28.410 18.820,27.200 18.884 C 25.022 18.999,24.999 18.988,24.865 17.800 C 24.790 17.140,24.526 16.354,24.278 16.054 C 23.112 14.645,25.343 13.969,30.759 14.088 L 35.800 14.200 35.924 15.930 M20.677 15.800 C 20.720 16.460,20.964 18.214,21.221 19.697 C 21.767 22.855,21.581 23.600,20.246 23.600 C 19.707 23.600,19.188 23.825,19.092 24.100 C 18.497 25.799,17.262 23.027,16.988 19.380 C 16.629 14.584,16.731 14.320,18.896 14.477 C 20.475 14.591,20.606 14.688,20.677 15.800 M84.400 15.586 C 84.400 16.454,83.303 17.200,82.026 17.200 C 80.826 17.200,81.009 17.857,82.600 19.254 C 83.595 20.127,84.000 20.818,84.000 21.641 C 84.000 22.279,84.180 22.800,84.400 22.800 C 84.620 22.800,84.800 22.108,84.800 21.262 C 84.800 19.232,86.758 17.600,89.195 17.600 C 89.858 17.600,90.400 17.420,90.400 17.200 C 90.400 16.980,89.496 16.800,88.390 16.800 C 86.614 16.800,86.336 16.684,86.000 15.800 C 85.549 14.613,84.400 14.459,84.400 15.586 M386.930 15.063 C 387.075 15.208,386.991 15.570,386.743 15.868 C 386.242 16.472,385.023 15.811,385.428 15.155 C 385.685 14.739,386.553 14.686,386.930 15.063 M142.200 15.600 C 142.064 15.820,141.508 16.000,140.964 16.000 C 139.801 16.000,139.299 16.956,140.011 17.814 C 140.452 18.344,140.581 18.320,141.079 17.609 C 141.420 17.122,142.095 16.800,142.774 16.800 C 143.908 16.800,145.020 15.954,144.530 15.463 C 144.123 15.056,142.477 15.153,142.200 15.600 M26.849 21.630 C 27.590 24.283,27.013 26.207,25.782 25.185 C 25.185 24.689,24.947 21.186,25.475 20.658 C 25.949 20.184,26.567 20.621,26.849 21.630 M173.670 239.726 C 173.191 240.235,172.800 240.851,172.800 241.095 C 172.800 241.339,172.375 242.047,171.855 242.669 C 171.335 243.291,170.425 244.829,169.832 246.086 C 168.749 248.386,165.966 251.272,164.000 252.134 C 163.450 252.376,162.401 253.016,161.668 253.558 C 158.918 255.593,159.083 252.849,161.954 248.800 C 165.296 244.087,166.473 240.821,165.029 240.267 C 164.277 239.978,162.400 242.446,162.400 243.724 C 162.400 244.262,162.130 244.926,161.800 245.200 C 161.470 245.474,161.200 246.008,161.200 246.387 C 161.200 247.694,157.605 250.000,155.568 250.000 C 154.318 250.000,148.928 244.634,147.808 242.274 L 147.134 240.852 145.932 241.583 C 144.693 242.336,143.604 243.995,143.594 245.146 C 143.587 245.969,142.587 248.905,141.600 251.000 C 141.186 251.880,140.722 253.140,140.568 253.800 C 140.415 254.460,140.112 255.225,139.896 255.500 C 139.256 256.313,140.348 257.259,141.766 257.120 C 142.922 257.008,143.008 256.886,143.128 255.201 C 143.198 254.211,143.518 253.112,143.837 252.759 C 144.169 252.392,144.304 251.816,144.151 251.417 C 144.004 251.033,144.050 250.602,144.253 250.460 C 144.594 250.219,145.630 247.952,146.157 246.291 C 146.625 244.815,149.600 245.684,149.600 247.297 C 149.600 248.736,153.115 250.862,156.000 251.167 L 158.200 251.400 158.105 252.963 C 157.957 255.381,157.188 256.190,154.229 257.037 C 152.783 257.451,151.600 257.932,151.600 258.105 C 151.600 258.278,151.147 258.592,150.593 258.803 C 150.039 259.013,149.421 259.620,149.219 260.151 C 149.017 260.682,148.642 261.186,148.387 261.271 C 147.455 261.582,147.432 265.033,148.351 266.521 C 148.818 267.276,149.200 268.153,149.200 268.469 C 149.200 270.774,153.352 272.185,153.859 270.052 C 153.996 269.473,154.344 268.550,154.631 268.000 C 154.918 267.450,155.461 266.010,155.838 264.800 C 156.215 263.590,156.741 262.240,157.007 261.800 C 157.274 261.360,157.709 260.190,157.975 259.200 C 158.473 257.344,161.578 254.619,163.231 254.587 C 163.604 254.580,164.206 254.327,164.571 254.024 C 165.798 253.006,166.308 254.166,165.387 255.879 C 164.954 256.685,164.658 257.603,164.728 257.920 C 164.799 258.236,164.655 259.337,164.408 260.365 C 163.852 262.685,164.424 265.632,165.776 267.404 C 166.288 268.076,166.776 268.980,166.859 269.413 C 167.069 270.499,169.865 270.585,169.682 269.499 C 169.607 269.050,169.965 268.629,170.682 268.324 C 171.297 268.063,172.298 267.397,172.906 266.844 L 174.012 265.839 174.646 266.745 C 174.995 267.243,175.668 267.819,176.140 268.024 C 176.613 268.230,177.270 268.564,177.600 268.766 C 181.209 270.977,182.033 270.845,185.199 267.545 C 188.013 264.611,189.198 264.180,189.201 266.087 C 189.209 270.421,194.107 271.288,198.000 267.645 C 200.901 264.930,201.806 264.988,201.784 267.887 C 201.769 269.804,201.835 269.956,202.599 269.764 C 203.057 269.650,203.958 269.756,204.601 270.000 C 206.709 270.802,210.800 270.111,210.800 268.953 C 210.800 268.429,210.948 268.000,211.128 268.000 C 211.308 268.000,212.213 267.352,213.139 266.560 C 214.830 265.112,216.000 265.137,216.000 266.620 C 216.000 267.376,218.491 269.219,218.986 268.830 C 219.214 268.651,220.120 268.280,221.000 268.005 C 222.546 267.523,225.600 265.035,225.600 264.257 C 225.600 264.047,226.455 262.624,227.500 261.095 C 230.709 256.399,230.298 252.987,226.469 252.534 C 224.432 252.292,223.583 252.807,225.100 253.363 C 228.416 254.579,228.906 256.415,226.800 259.736 C 226.140 260.776,225.600 261.738,225.600 261.873 C 225.600 262.451,222.694 265.600,222.161 265.600 C 221.838 265.600,221.471 265.870,221.345 266.200 C 221.036 267.003,218.263 266.999,217.595 266.194 C 216.959 265.428,217.360 262.129,218.202 261.198 C 218.531 260.834,218.800 260.404,218.800 260.241 C 218.800 260.078,219.316 259.192,219.947 258.272 C 220.578 257.352,221.521 255.700,222.043 254.600 C 222.565 253.500,223.047 252.486,223.114 252.346 C 223.267 252.029,222.063 250.800,221.599 250.800 C 221.222 250.800,218.400 256.452,218.400 257.207 C 218.400 258.776,211.898 266.637,209.869 267.520 C 209.171 267.824,208.287 268.236,207.905 268.436 C 205.928 269.472,204.261 268.443,203.789 265.896 C 203.635 265.068,203.350 264.293,203.155 264.172 C 202.370 263.687,202.899 262.449,204.800 260.316 C 205.900 259.082,206.800 257.876,206.800 257.636 C 206.800 257.396,206.980 257.200,207.200 257.200 C 207.420 257.200,207.600 256.917,207.600 256.572 C 207.600 256.227,208.140 255.159,208.800 254.200 C 209.460 253.241,210.000 252.262,210.000 252.024 C 210.000 251.787,210.519 250.876,211.154 250.000 C 212.335 248.370,213.513 243.792,213.057 242.604 C 212.610 241.438,212.000 242.016,212.000 243.605 C 212.000 244.488,211.850 245.523,211.668 245.905 C 211.485 246.287,211.035 247.200,210.668 247.932 C 210.300 248.665,209.999 249.475,209.998 249.732 C 209.997 249.990,209.458 251.010,208.800 252.000 C 208.142 252.990,207.603 254.115,207.602 254.500 C 207.601 254.885,207.459 255.200,207.286 255.200 C 207.114 255.200,206.654 255.740,206.264 256.400 C 205.542 257.622,204.661 257.947,204.180 257.168 C 203.841 256.620,204.793 253.130,205.427 252.600 C 205.690 252.380,206.017 251.441,206.155 250.514 C 206.292 249.587,206.854 248.167,207.402 247.358 C 207.951 246.550,208.400 245.586,208.400 245.216 C 208.400 244.846,209.229 243.678,210.242 242.621 C 211.962 240.825,212.109 240.037,210.729 240.006 C 210.362 239.998,208.000 242.889,208.000 243.347 C 208.000 243.547,207.460 244.589,206.800 245.662 C 206.140 246.734,205.600 247.891,205.600 248.233 C 205.600 248.574,205.150 249.443,204.600 250.164 C 204.050 250.886,203.600 251.984,203.600 252.606 C 203.600 253.228,203.305 254.063,202.944 254.462 C 202.507 254.945,202.229 256.159,202.114 258.094 C 202.019 259.692,201.708 261.360,201.424 261.800 C 200.124 263.815,197.017 266.823,195.582 267.456 C 194.712 267.840,194.000 268.299,194.000 268.477 C 194.000 268.655,193.668 268.800,193.262 268.800 C 190.545 268.800,189.981 262.170,192.380 258.432 C 193.139 257.249,194.039 255.786,194.380 255.181 C 194.721 254.576,195.526 253.298,196.169 252.341 C 198.275 249.204,199.016 245.031,197.757 243.400 C 196.939 242.341,194.767 244.662,193.994 247.420 C 193.717 248.410,193.335 249.317,193.145 249.434 C 192.955 249.551,192.800 249.937,192.800 250.292 C 192.800 250.647,192.487 251.282,192.105 251.705 C 191.723 252.127,191.400 252.681,191.387 252.936 C 191.309 254.430,190.661 257.200,190.390 257.200 C 190.214 257.200,189.944 257.947,189.790 258.860 C 189.177 262.487,184.031 267.600,180.994 267.600 C 175.728 267.600,174.690 264.525,178.403 259.919 C 180.641 257.144,180.916 256.462,180.728 254.165 C 180.303 248.989,174.000 256.892,174.000 262.600 C 174.000 265.033,169.316 268.458,167.758 267.165 C 165.489 265.282,165.411 257.497,167.625 253.866 C 168.050 253.170,168.398 252.272,168.399 251.870 C 168.399 251.469,169.355 250.119,170.523 248.870 C 173.169 246.041,175.200 243.424,175.200 242.842 C 175.200 242.599,175.335 242.399,175.500 242.397 C 176.320 242.388,176.792 240.254,176.135 239.528 C 175.264 238.566,174.718 238.610,173.670 239.726 M197.024 246.438 C 197.173 246.679,197.093 247.309,196.847 247.838 C 196.601 248.367,196.183 249.295,195.918 249.900 C 195.653 250.505,195.068 251.420,194.618 251.932 C 194.168 252.445,193.845 252.940,193.900 253.032 C 193.955 253.125,193.865 253.155,193.700 253.100 C 193.535 253.045,193.472 252.820,193.559 252.600 C 193.647 252.380,193.750 251.840,193.789 251.400 C 193.912 250.001,194.474 248.400,194.843 248.400 C 195.040 248.400,195.200 248.076,195.200 247.680 C 195.200 246.417,196.474 245.549,197.024 246.438 M179.200 256.149 C 179.200 257.379,176.925 259.591,176.581 258.695 C 176.189 257.672,178.111 254.574,178.853 255.033 C 179.044 255.151,179.200 255.653,179.200 256.149 M155.867 259.030 C 156.089 259.608,155.582 261.839,154.783 263.800 C 154.604 264.240,154.164 265.531,153.807 266.669 C 152.845 269.728,151.483 270.392,150.506 268.279 C 148.772 264.530,148.726 262.544,150.329 260.750 C 152.034 258.841,155.394 257.797,155.867 259.030 M188.003 290.881 C 187.471 291.826,187.085 292.690,187.144 292.800 C 187.355 293.189,188.607 292.736,189.104 292.091 C 189.899 291.059,191.202 292.464,190.497 293.593 C 189.508 295.178,189.154 297.766,190.036 296.968 C 190.456 296.587,190.800 296.062,190.800 295.799 C 190.800 295.537,191.081 294.760,191.424 294.073 C 193.400 290.112,190.143 287.073,188.003 290.881 M171.881 291.917 C 171.067 292.751,170.400 293.687,170.400 293.997 C 170.400 294.435,170.507 294.453,170.880 294.080 C 172.248 292.712,173.481 294.128,172.997 296.509 C 172.477 299.067,168.341 306.761,165.935 309.644 C 162.880 313.306,163.095 307.618,166.177 303.233 C 166.960 302.119,167.600 301.031,167.600 300.814 C 167.600 300.597,167.959 299.830,168.399 299.110 C 169.161 297.859,169.465 296.400,168.964 296.400 C 168.484 296.400,167.138 298.254,166.353 300.000 C 165.908 300.989,165.106 302.372,164.572 303.073 C 164.037 303.773,163.600 304.545,163.600 304.787 C 163.600 305.030,163.347 305.627,163.037 306.114 C 162.332 307.224,161.200 312.711,161.200 315.019 C 161.200 315.973,161.020 316.864,160.800 317.000 C 160.185 317.380,160.325 317.927,161.073 318.071 C 161.444 318.142,162.119 318.916,162.573 319.790 C 164.298 323.105,169.474 322.445,174.535 318.265 C 176.669 316.502,177.182 316.659,177.194 319.076 C 177.197 319.778,177.380 320.464,177.600 320.600 C 177.820 320.736,178.000 321.385,178.000 322.042 C 178.000 323.338,179.525 325.200,180.587 325.200 C 180.930 325.200,181.541 325.406,181.945 325.659 C 182.769 326.173,186.401 324.664,188.531 322.924 C 190.079 321.659,190.594 321.750,192.354 323.600 C 194.613 325.975,200.400 325.780,200.400 323.328 C 200.400 322.848,200.274 322.806,199.860 323.150 C 197.419 325.176,193.200 323.415,193.200 320.372 C 193.200 318.639,200.819 310.400,202.422 310.400 C 203.502 310.400,206.000 312.412,206.000 313.282 C 206.000 313.970,204.581 316.405,203.425 317.700 C 203.081 318.085,202.800 318.597,202.800 318.837 C 202.800 319.077,202.440 319.731,202.000 320.291 C 200.845 321.759,200.958 322.641,202.296 322.619 C 203.195 322.603,203.430 322.385,203.600 321.400 C 203.856 319.922,204.559 319.977,204.714 321.488 C 204.860 322.913,205.608 324.400,206.179 324.400 C 206.476 324.400,206.619 323.034,206.611 320.263 C 206.605 317.987,206.804 315.693,207.054 315.163 C 208.846 311.356,209.147 308.400,207.599 309.801 C 206.650 310.660,205.017 310.074,204.671 308.750 C 204.291 307.298,200.425 307.708,198.379 309.417 C 197.446 310.197,196.352 311.012,195.947 311.228 C 195.023 311.723,192.000 316.230,192.000 317.113 C 192.000 317.913,188.183 321.589,186.567 322.347 C 185.925 322.647,185.087 323.052,184.705 323.247 C 181.398 324.929,179.057 322.802,179.024 318.084 L 179.000 314.600 181.000 312.057 C 182.100 310.658,183.180 309.218,183.400 308.857 C 183.620 308.496,184.025 308.056,184.300 307.880 C 184.575 307.704,184.800 307.231,184.800 306.829 C 184.800 306.427,185.070 305.874,185.400 305.600 C 186.053 305.058,186.216 304.000,185.647 304.000 C 185.452 304.000,185.199 304.360,185.084 304.800 C 184.839 305.738,183.288 305.896,182.951 305.016 C 182.549 303.969,184.857 298.041,186.354 296.276 C 186.890 295.644,186.894 295.503,186.384 295.177 C 185.522 294.625,182.829 297.807,182.809 299.400 C 182.801 300.060,182.437 301.140,182.000 301.800 C 181.563 302.460,181.204 303.344,181.203 303.765 C 181.201 304.186,180.771 305.266,180.248 306.165 C 179.724 307.064,179.162 308.610,179.000 309.600 C 178.514 312.570,173.280 318.749,171.200 318.808 C 170.870 318.818,170.251 319.090,169.824 319.413 C 168.571 320.360,166.240 320.150,164.831 318.964 C 162.799 317.255,163.081 315.780,166.200 311.785 C 167.630 309.954,168.800 308.195,168.800 307.877 C 168.800 307.558,169.058 307.083,169.374 306.821 C 169.690 306.559,170.064 305.817,170.206 305.173 C 170.348 304.528,170.787 303.774,171.183 303.497 C 171.579 303.220,172.181 302.184,172.522 301.196 C 172.862 300.208,173.456 298.777,173.841 298.016 C 174.256 297.198,174.616 295.359,174.722 293.516 C 174.939 289.767,174.321 289.419,171.881 291.917 M144.275 297.206 C 143.657 297.392,142.390 298.167,141.460 298.929 L 139.770 300.314 138.692 299.529 C 137.295 298.511,136.960 298.770,136.650 301.105 C 136.510 302.163,136.141 303.392,135.831 303.835 C 135.520 304.278,135.139 305.317,134.984 306.143 C 134.808 307.085,134.340 307.883,133.731 308.282 C 132.954 308.791,132.783 309.202,132.879 310.329 C 133.054 312.365,133.690 312.277,134.542 310.098 C 136.057 306.226,136.581 305.351,138.765 303.050 C 141.194 300.494,143.563 298.800,144.712 298.800 C 145.112 298.800,145.652 298.588,145.911 298.329 C 146.271 297.969,146.570 298.030,147.191 298.591 C 149.952 301.091,145.827 312.400,142.153 312.400 C 141.629 312.400,141.200 312.580,141.200 312.800 C 141.200 313.020,140.705 313.203,140.100 313.206 C 138.210 313.216,137.000 314.077,137.000 315.412 C 137.000 317.027,139.683 317.006,142.042 315.371 C 145.180 313.197,150.000 314.401,150.000 317.360 C 150.000 317.712,150.180 318.000,150.400 318.000 C 151.146 318.000,150.873 323.171,150.065 324.338 C 149.661 324.922,149.216 325.718,149.075 326.106 C 148.935 326.494,148.366 326.985,147.810 327.196 C 147.255 327.407,146.800 327.765,146.800 327.990 C 146.800 328.216,146.305 328.401,145.700 328.402 C 144.188 328.405,141.459 329.195,141.126 329.726 C 140.933 330.033,140.540 329.996,139.801 329.601 C 138.977 329.159,138.588 329.140,137.994 329.511 C 137.578 329.771,137.139 329.825,137.019 329.631 C 136.899 329.437,135.720 329.153,134.399 329.000 C 132.423 328.771,131.837 328.521,131.098 327.594 C 128.720 324.612,125.537 326.888,125.917 331.300 C 126.118 333.637,126.432 333.669,127.887 331.503 C 128.999 329.847,130.253 329.143,130.752 329.895 C 132.015 331.799,142.030 331.569,146.299 329.538 C 153.265 326.224,154.144 315.925,147.733 312.724 C 145.695 311.706,145.730 311.829,147.000 310.164 C 147.550 309.443,148.000 308.586,148.000 308.260 C 148.000 307.934,148.196 307.601,148.435 307.522 C 149.075 307.308,149.772 301.705,149.435 299.480 C 149.054 296.955,147.456 296.251,144.275 297.206 M132.400 313.000 C 132.400 313.330,132.580 313.600,132.800 313.600 C 133.020 313.600,133.200 313.330,133.200 313.000 C 133.200 312.670,133.020 312.400,132.800 312.400 C 132.580 312.400,132.400 312.670,132.400 313.000 M130.894 316.100 C 130.271 316.872,129.846 320.000,130.365 320.000 C 130.604 320.000,130.800 319.649,130.800 319.220 C 130.800 318.791,131.056 318.296,131.368 318.120 C 132.220 317.640,132.645 315.600,131.892 315.600 C 131.565 315.600,131.116 315.825,130.894 316.100 M129.067 321.867 C 128.606 322.327,128.775 322.800,129.400 322.800 C 129.730 322.800,130.000 322.530,130.000 322.200 C 130.000 321.575,129.527 321.406,129.067 321.867 M266.892 392.875 C 267.139 393.617,268.000 393.740,268.000 393.033 C 268.000 392.685,267.715 392.400,267.367 392.400 C 267.018 392.400,266.805 392.614,266.892 392.875 M399.334 411.827 C 399.202 412.172,399.298 412.658,399.547 412.907 C 399.884 413.244,400.000 413.084,400.000 412.280 C 400.000 411.077,399.701 410.873,399.334 411.827 M379.074 434.439 C 378.776 435.577,379.144 436.397,379.833 436.132 C 380.577 435.846,380.589 433.600,379.847 433.600 C 379.542 433.600,379.195 433.977,379.074 434.439 M389.883 435.050 C 389.162 435.771,389.825 436.000,392.633 436.000 C 394.881 436.000,395.624 435.871,395.501 435.500 C 395.321 434.955,390.374 434.559,389.883 435.050 M355.200 436.000 C 355.200 436.220,355.470 436.400,355.800 436.400 C 356.130 436.400,356.400 436.220,356.400 436.000 C 356.400 435.780,356.130 435.600,355.800 435.600 C 355.470 435.600,355.200 435.780,355.200 436.000 M379.878 437.056 C 379.558 437.375,379.919 438.000,380.424 438.000 C 380.631 438.000,380.800 437.730,380.800 437.400 C 380.800 436.781,380.328 436.605,379.878 437.056 M380.400 442.000 C 380.400 442.660,380.580 443.200,380.800 443.200 C 381.020 443.200,381.200 442.660,381.200 442.000 C 381.200 441.340,381.020 440.800,380.800 440.800 C 380.580 440.800,380.400 441.340,380.400 442.000 M336.724 458.336 C 336.530 459.656,336.714 460.400,337.233 460.400 C 337.435 460.400,337.600 459.680,337.600 458.800 C 337.600 456.967,336.974 456.635,336.724 458.336 M381.175 458.630 C 380.741 459.153,380.750 459.323,381.226 459.624 C 382.678 460.543,384.259 459.585,382.940 458.586 C 381.988 457.865,381.807 457.869,381.175 458.630 M386.400 458.557 C 386.400 459.525,388.396 459.623,399.700 459.211 C 399.865 459.205,400.000 458.930,400.000 458.600 C 400.000 458.090,398.978 458.000,393.200 458.000 C 387.654 458.000,386.400 458.103,386.400 458.557 M357.231 458.760 C 356.255 458.892,355.380 459.249,355.280 459.554 C 355.136 459.991,355.412 460.049,356.582 459.830 C 357.600 459.639,358.340 459.731,358.938 460.123 C 360.135 460.907,361.145 460.002,360.166 459.023 C 359.823 458.680,359.421 458.427,359.271 458.460 C 359.122 458.493,358.204 458.628,357.231 458.760 M368.400 459.200 C 368.400 459.420,368.940 459.600,369.600 459.600 C 370.260 459.600,370.800 459.420,370.800 459.200 C 370.800 458.980,370.260 458.800,369.600 458.800 C 368.940 458.800,368.400 458.980,368.400 459.200 M377.200 459.200 C 377.200 459.420,377.650 459.600,378.200 459.600 C 378.750 459.600,379.200 459.420,379.200 459.200 C 379.200 458.980,378.750 458.800,378.200 458.800 C 377.650 458.800,377.200 458.980,377.200 459.200 M382.400 463.000 C 382.400 463.550,382.580 464.000,382.800 464.000 C 383.020 464.000,383.200 463.550,383.200 463.000 C 383.200 462.450,383.020 462.000,382.800 462.000 C 382.580 462.000,382.400 462.450,382.400 463.000 M360.000 464.800 C 360.000 465.240,360.180 465.600,360.400 465.600 C 360.620 465.600,360.800 465.240,360.800 464.800 C 360.800 464.360,360.620 464.000,360.400 464.000 C 360.180 464.000,360.000 464.360,360.000 464.800 M338.400 470.776 C 338.400 471.229,338.580 471.600,338.800 471.600 C 339.020 471.600,339.200 471.341,339.200 471.024 C 339.200 470.707,339.020 470.336,338.800 470.200 C 338.580 470.064,338.400 470.323,338.400 470.776 M383.343 473.100 C 383.480 473.925,383.593 475.005,383.596 475.500 C 383.598 476.031,383.846 476.400,384.200 476.400 C 384.887 476.400,385.056 474.205,384.400 473.800 C 384.180 473.664,384.000 473.113,384.000 472.576 C 384.000 472.039,383.796 471.600,383.548 471.600 C 383.248 471.600,383.179 472.105,383.343 473.100 M361.550 476.620 C 361.522 476.829,361.477 478.260,361.450 479.800 L 361.400 482.600 358.300 482.717 C 356.070 482.801,355.200 482.981,355.200 483.358 C 355.200 484.046,363.023 484.600,364.549 484.019 C 366.049 483.449,365.847 482.869,364.100 482.724 L 362.600 482.600 362.480 479.800 C 362.379 477.470,361.730 475.250,361.550 476.620 M338.800 478.800 C 338.800 479.460,338.980 480.000,339.200 480.000 C 339.420 480.000,339.600 479.460,339.600 478.800 C 339.600 478.140,339.420 477.600,339.200 477.600 C 338.980 477.600,338.800 478.140,338.800 478.800 M384.195 481.300 C 383.915 481.937,383.358 482.258,382.287 482.400 C 381.454 482.510,380.779 482.735,380.787 482.900 C 380.794 483.065,380.800 483.370,380.800 483.578 C 380.800 483.786,381.655 484.011,382.700 484.078 L 384.600 484.200 385.200 490.800 C 385.530 494.430,385.913 497.580,386.052 497.800 C 387.785 500.550,386.390 508.136,384.383 506.882 C 383.494 506.327,380.800 506.228,380.800 506.750 C 380.800 506.943,377.515 507.186,373.500 507.290 C 365.611 507.495,365.136 507.392,364.628 505.371 C 364.315 504.124,363.600 504.110,363.600 505.351 C 363.600 507.203,362.841 507.385,354.158 507.615 C 346.118 507.827,345.271 507.945,345.784 508.773 C 346.128 509.331,357.056 509.356,357.400 508.800 C 357.829 508.106,362.100 508.341,363.104 509.114 C 363.895 509.723,364.062 510.384,364.439 514.405 C 364.676 516.932,365.034 519.313,365.235 519.695 C 365.436 520.077,365.602 521.157,365.604 522.095 C 365.610 524.447,366.035 526.800,366.452 526.800 C 366.644 526.800,366.800 526.365,366.800 525.833 C 366.800 525.302,367.025 524.785,367.300 524.686 C 367.694 524.543,367.698 524.331,367.315 523.682 C 366.733 522.693,365.771 510.968,366.149 509.462 L 366.415 508.400 376.359 508.400 C 388.162 508.400,387.023 507.712,387.585 515.182 C 387.823 518.349,388.173 521.133,388.363 521.370 C 388.552 521.606,388.773 523.867,388.854 526.393 L 389.000 530.985 387.800 531.245 C 387.140 531.388,383.776 531.527,380.324 531.553 C 376.624 531.581,373.946 531.764,373.800 532.000 C 372.604 533.936,367.600 531.712,367.600 529.245 C 367.600 528.216,367.452 527.971,366.900 528.083 C 366.375 528.188,366.231 528.543,366.324 529.499 C 366.544 531.765,364.530 532.342,354.986 532.743 C 348.630 533.010,352.408 533.091,373.500 533.139 L 400.000 533.200 400.000 532.229 C 400.000 531.169,397.931 530.664,393.400 530.620 L 391.400 530.600 391.086 527.800 C 390.913 526.260,390.617 524.640,390.429 524.200 C 390.018 523.241,388.867 512.070,388.945 509.800 L 389.000 508.200 394.500 508.200 L 400.001 508.200 400.000 507.173 L 400.000 506.145 394.372 506.325 C 390.770 506.440,388.595 506.355,388.328 506.088 C 387.846 505.606,387.186 499.643,386.947 493.600 C 386.856 491.290,386.619 489.040,386.422 488.600 C 384.315 483.913,385.216 483.200,393.249 483.200 C 398.852 483.200,400.000 483.102,400.000 482.625 C 400.000 482.144,398.815 482.062,392.700 482.125 C 385.408 482.200,385.400 482.199,385.272 481.300 C 385.202 480.805,385.020 480.400,384.867 480.400 C 384.715 480.400,384.412 480.805,384.195 481.300 M373.700 482.689 C 372.911 482.787,372.400 483.077,372.400 483.425 C 372.400 484.101,375.794 484.257,376.200 483.600 C 376.336 483.380,376.932 483.197,377.524 483.194 C 378.366 483.189,378.469 483.103,378.000 482.800 C 377.403 482.414,376.174 482.382,373.700 482.689 M316.667 483.467 C 316.116 484.017,316.429 484.800,317.200 484.800 C 317.733 484.800,318.000 484.533,318.000 484.000 C 318.000 483.229,317.217 482.916,316.667 483.467 M321.600 483.800 C 321.600 484.130,321.780 484.400,322.000 484.400 C 322.220 484.400,322.400 484.130,322.400 483.800 C 322.400 483.470,322.220 483.200,322.000 483.200 C 321.780 483.200,321.600 483.470,321.600 483.800 M330.000 483.800 C 330.000 484.130,330.270 484.400,330.600 484.400 C 330.930 484.400,331.200 484.130,331.200 483.800 C 331.200 483.470,330.930 483.200,330.600 483.200 C 330.270 483.200,330.000 483.470,330.000 483.800 M333.478 483.456 C 333.061 483.873,333.589 484.400,334.424 484.400 C 334.851 484.400,335.200 484.130,335.200 483.800 C 335.200 483.207,333.972 482.961,333.478 483.456 M338.000 483.757 C 338.000 484.064,338.270 484.418,338.600 484.545 C 338.930 484.671,339.200 485.231,339.200 485.787 C 339.200 486.421,339.425 486.800,339.800 486.800 C 340.169 486.800,340.400 486.425,340.400 485.824 C 340.400 485.287,340.580 484.736,340.800 484.600 C 341.818 483.971,341.157 483.200,339.600 483.200 C 338.499 483.200,338.000 483.374,338.000 483.757 M342.800 483.800 C 342.800 484.267,343.333 484.400,345.200 484.400 C 347.067 484.400,347.600 484.267,347.600 483.800 C 347.600 483.333,347.067 483.200,345.200 483.200 C 343.333 483.200,342.800 483.333,342.800 483.800 M246.800 484.400 C 246.800 484.620,247.070 484.800,247.400 484.800 C 247.730 484.800,248.000 484.620,248.000 484.400 C 248.000 484.180,247.730 484.000,247.400 484.000 C 247.070 484.000,246.800 484.180,246.800 484.400 M280.400 484.400 C 280.400 484.620,280.940 484.800,281.600 484.800 C 282.260 484.800,282.800 484.620,282.800 484.400 C 282.800 484.180,282.260 484.000,281.600 484.000 C 280.940 484.000,280.400 484.180,280.400 484.400 M285.600 484.400 C 285.600 484.620,286.410 484.800,287.400 484.800 C 288.390 484.800,289.200 484.620,289.200 484.400 C 289.200 484.180,288.390 484.000,287.400 484.000 C 286.410 484.000,285.600 484.180,285.600 484.400 M290.800 484.400 C 290.800 484.629,292.000 484.800,293.600 484.800 C 295.200 484.800,296.400 484.629,296.400 484.400 C 296.400 484.171,295.200 484.000,293.600 484.000 C 292.000 484.000,290.800 484.171,290.800 484.400 M180.400 484.753 C 180.400 485.178,182.002 485.646,182.469 485.357 C 183.195 484.908,182.733 484.400,181.600 484.400 C 180.940 484.400,180.400 484.559,180.400 484.753 M339.600 488.800 C 339.600 489.244,339.867 489.600,340.200 489.600 C 340.533 489.600,340.800 489.244,340.800 488.800 C 340.800 488.356,340.533 488.000,340.200 488.000 C 339.867 488.000,339.600 488.356,339.600 488.800 M362.474 493.437 C 362.633 495.768,362.940 497.886,363.154 498.145 C 363.369 498.404,363.602 499.408,363.672 500.377 C 363.743 501.345,364.016 502.209,364.279 502.295 C 364.606 502.403,364.708 502.032,364.600 501.126 C 364.512 500.397,364.225 497.640,363.960 495.000 C 363.520 490.612,363.151 489.200,362.443 489.200 C 362.300 489.200,362.314 491.107,362.474 493.437 M340.400 495.600 C 340.400 496.700,340.580 497.600,340.800 497.600 C 341.020 497.600,341.200 496.700,341.200 495.600 C 341.200 494.500,341.020 493.600,340.800 493.600 C 340.580 493.600,340.400 494.500,340.400 495.600 M340.800 500.776 C 340.800 501.669,340.980 502.400,341.200 502.400 C 341.420 502.400,341.600 501.781,341.600 501.024 C 341.600 500.267,341.420 499.536,341.200 499.400 C 340.958 499.251,340.800 499.796,340.800 500.776 M341.430 504.833 C 341.323 505.145,341.182 505.940,341.117 506.600 L 341.000 507.800 333.870 507.909 C 323.845 508.063,324.085 508.917,334.233 509.200 L 341.400 509.400 341.518 511.876 C 341.621 514.029,341.530 514.409,340.818 514.790 C 339.711 515.383,339.789 515.855,341.100 516.483 C 342.416 517.113,342.725 518.596,342.770 524.476 C 342.787 526.608,342.980 528.464,343.200 528.600 C 343.815 528.980,343.674 531.316,342.977 532.311 C 342.370 533.179,342.388 533.200,343.746 533.200 L 345.138 533.200 344.916 530.100 C 344.793 528.395,344.553 526.820,344.383 526.600 C 344.212 526.380,343.956 524.490,343.813 522.400 C 342.885 508.856,342.083 502.943,341.430 504.833 M318.000 508.351 C 318.000 509.176,319.182 509.461,321.900 509.291 C 326.349 509.013,325.956 508.000,321.400 508.000 C 319.530 508.000,318.000 508.158,318.000 508.351 M262.667 508.667 C 262.160 509.174,262.403 509.600,263.200 509.600 C 263.644 509.600,264.000 509.333,264.000 509.000 C 264.000 508.391,263.154 508.179,262.667 508.667 M281.200 509.000 C 281.200 509.433,281.644 509.600,282.800 509.600 C 283.956 509.600,284.400 509.433,284.400 509.000 C 284.400 508.567,283.956 508.400,282.800 508.400 C 281.644 508.400,281.200 508.567,281.200 509.000 M286.000 509.000 C 286.000 509.532,286.468 509.616,288.900 509.518 C 290.495 509.453,291.800 509.220,291.800 509.000 C 291.800 508.780,290.495 508.547,288.900 508.482 C 286.468 508.384,286.000 508.468,286.000 509.000 M294.471 509.057 C 294.666 510.051,295.870 510.690,296.452 510.108 C 296.817 509.743,296.809 509.493,296.414 509.017 C 295.715 508.175,294.303 508.204,294.471 509.057 M298.400 508.986 C 298.400 509.499,299.094 509.600,302.633 509.600 C 305.842 509.600,306.827 509.479,306.701 509.100 C 306.431 508.287,298.400 508.177,298.400 508.986 M313.600 509.000 C 313.600 509.412,313.862 509.608,314.300 509.524 C 315.143 509.361,315.090 508.652,314.221 508.471 C 313.859 508.395,313.600 508.616,313.600 509.000 M296.400 515.200 C 296.400 516.080,296.580 516.800,296.800 516.800 C 297.020 516.800,297.200 516.080,297.200 515.200 C 297.200 514.320,297.020 513.600,296.800 513.600 C 296.580 513.600,296.400 514.320,296.400 515.200 M320.396 529.500 C 320.393 529.885,320.280 530.875,320.143 531.700 C 319.915 533.083,319.970 533.200,320.848 533.201 C 321.752 533.201,321.793 533.090,321.663 531.001 C 321.534 528.934,320.408 527.600,320.396 529.500 M297.200 531.200 C 297.200 532.967,297.298 533.200,298.043 533.200 C 298.647 533.200,298.817 533.021,298.643 532.567 C 298.509 532.219,298.400 531.319,298.400 530.567 C 298.400 529.619,298.216 529.200,297.800 529.200 C 297.347 529.200,297.200 529.689,297.200 531.200 M274.000 531.800 C 274.000 532.778,274.181 533.200,274.600 533.200 C 275.019 533.200,275.200 532.778,275.200 531.800 C 275.200 530.822,275.019 530.400,274.600 530.400 C 274.181 530.400,274.000 530.822,274.000 531.800 " stroke="none" fill="#fcfcfc" fill-rule="evenodd"></path><path id="path1" d="M291.770 7.190 C 291.556 7.404,288.415 7.629,284.790 7.690 L 278.200 7.800 278.200 10.000 C 278.200 12.503,279.660 13.392,280.890 11.636 C 281.469 10.809,284.400 10.822,284.400 11.652 C 284.400 11.844,285.210 12.000,286.200 12.000 C 287.190 12.000,288.000 12.180,288.000 12.400 C 288.000 12.620,287.214 12.800,286.254 12.800 C 284.107 12.800,282.222 14.078,282.546 15.314 C 282.812 16.333,282.413 18.400,281.950 18.400 C 281.757 18.400,281.600 18.023,281.600 17.563 C 281.600 17.058,281.278 16.641,280.791 16.514 C 280.112 16.336,280.023 16.086,280.235 14.955 C 280.430 13.917,280.337 13.551,279.829 13.356 C 277.726 12.549,276.685 17.529,278.480 19.811 C 279.648 21.296,280.074 27.508,279.065 28.346 C 277.761 29.429,267.054 29.173,265.835 28.030 C 263.991 26.302,264.375 16.601,266.287 16.599 C 268.107 16.598,267.140 14.216,265.231 14.000 C 263.343 13.787,262.634 13.041,263.984 12.688 C 264.478 12.559,264.800 12.144,264.800 11.637 C 264.800 10.514,265.511 10.565,265.672 11.700 C 265.939 13.576,266.994 12.698,267.121 10.496 C 267.249 8.268,266.585 7.417,265.453 8.356 C 265.071 8.673,264.308 8.686,262.804 8.401 C 259.616 7.796,250.998 7.879,250.467 8.520 C 250.218 8.820,250.060 10.581,250.092 12.689 C 250.130 15.084,249.978 16.544,249.653 16.937 C 248.842 17.914,249.231 21.624,250.200 22.159 C 250.640 22.401,251.071 22.641,251.157 22.690 C 251.243 22.740,251.123 23.011,250.889 23.292 C 250.656 23.574,250.315 24.864,250.132 26.159 C 249.749 28.876,249.649 28.955,245.735 29.625 C 242.467 30.184,238.268 29.964,236.561 29.145 L 235.400 28.587 235.528 24.194 C 235.645 20.173,235.735 19.732,236.586 19.000 C 237.447 18.260,237.527 17.838,237.658 13.400 L 237.800 8.600 235.668 8.478 C 232.892 8.319,230.837 10.987,232.800 12.200 C 233.705 12.759,233.253 14.800,232.224 14.800 C 231.076 14.800,230.522 14.118,231.155 13.485 C 231.400 13.240,231.600 12.371,231.600 11.553 C 231.600 8.774,231.652 8.800,226.147 8.800 L 221.180 8.800 220.758 9.900 C 220.276 11.155,220.566 13.722,221.215 13.938 C 221.480 14.027,221.379 14.381,220.954 14.851 C 220.453 15.405,220.380 15.740,220.695 16.055 C 221.233 16.593,222.126 16.104,221.861 15.416 C 221.648 14.859,224.439 13.200,225.589 13.200 C 227.303 13.200,227.319 14.294,225.628 15.822 C 224.733 16.631,224.000 17.640,224.000 18.065 C 224.000 18.726,223.805 18.800,222.634 18.580 C 220.718 18.221,219.642 20.586,220.748 22.726 C 220.940 23.097,221.218 24.682,221.367 26.249 L 221.638 29.098 220.319 29.877 C 215.251 32.866,204.880 30.671,207.191 27.098 C 207.546 26.549,207.777 25.163,207.786 23.532 C 207.797 21.351,207.964 20.675,208.700 19.829 C 209.766 18.603,210.090 10.086,209.100 9.302 C 208.784 9.052,205.664 8.997,200.614 9.153 L 192.628 9.400 192.021 10.485 C 191.525 11.369,191.500 11.801,191.885 12.819 C 192.189 13.626,192.272 15.255,192.120 17.423 C 191.831 21.516,192.976 23.694,194.000 21.000 C 194.209 20.450,194.545 20.000,194.747 20.000 C 195.489 20.000,195.599 21.342,194.940 22.347 C 194.437 23.115,194.254 24.313,194.231 26.991 L 194.200 30.600 191.333 30.856 C 189.756 30.997,188.256 31.242,188.001 31.399 C 186.868 32.099,182.378 31.157,180.975 29.924 C 179.583 28.702,179.038 26.395,180.000 25.800 C 180.220 25.664,180.400 24.494,180.400 23.200 C 180.400 21.906,180.576 20.738,180.792 20.605 C 181.022 20.463,181.146 18.272,181.092 15.281 L 181.000 10.200 174.589 10.091 C 171.063 10.030,167.193 10.124,165.989 10.298 L 163.800 10.615 163.777 14.207 C 163.745 19.387,164.070 21.800,164.800 21.800 C 165.172 21.800,165.447 21.345,165.524 20.600 C 165.935 16.636,167.525 14.800,170.547 14.800 C 172.115 14.800,172.627 15.803,171.300 16.273 C 169.989 16.738,169.200 17.722,169.200 18.893 C 169.200 19.658,168.786 20.476,168.000 21.262 C 167.340 21.922,166.800 22.836,166.800 23.293 C 166.800 23.750,166.350 24.714,165.800 25.436 C 165.131 26.313,164.800 27.260,164.800 28.297 C 164.800 30.322,164.156 31.078,162.200 31.350 C 161.320 31.473,159.274 31.795,157.653 32.067 C 155.034 32.506,154.574 32.485,153.521 31.880 C 152.869 31.506,152.111 31.200,151.837 31.200 C 150.513 31.200,149.600 29.390,149.604 26.774 C 149.612 22.437,149.917 21.382,151.344 20.753 C 152.304 20.330,152.628 19.910,152.720 18.966 C 152.879 17.342,151.995 16.546,150.836 17.270 C 149.401 18.166,148.027 16.458,149.051 15.053 C 149.941 13.832,150.335 13.762,151.031 14.700 C 151.521 15.359,151.592 15.360,152.241 14.720 C 152.749 14.220,152.818 13.903,152.501 13.520 C 152.264 13.234,152.010 12.460,151.935 11.800 L 151.800 10.600 144.123 10.632 C 138.474 10.655,136.282 10.800,135.823 11.181 C 134.983 11.878,135.007 14.724,135.862 15.669 C 136.478 16.349,136.478 16.451,135.862 17.131 C 135.022 18.060,134.982 20.921,135.800 21.600 C 136.130 21.874,136.400 22.287,136.400 22.517 C 136.400 22.748,136.669 23.234,136.997 23.597 C 137.484 24.135,137.539 24.919,137.297 27.824 L 137.000 31.392 135.000 31.747 C 133.900 31.943,132.370 32.079,131.600 32.050 C 130.830 32.020,128.939 32.008,127.397 32.022 C 123.220 32.059,122.220 30.932,122.478 26.483 C 122.620 24.029,122.865 23.032,123.571 22.040 C 124.309 21.005,124.426 20.480,124.190 19.281 C 124.030 18.466,123.847 16.577,123.784 15.082 C 123.641 11.722,123.244 11.200,120.831 11.200 C 118.534 11.200,118.000 11.690,118.000 13.800 C 118.000 15.568,118.538 16.400,119.680 16.400 C 120.076 16.400,120.400 16.580,120.400 16.800 C 120.400 17.020,120.062 17.200,119.649 17.200 C 118.736 17.200,118.198 17.833,117.840 19.328 C 117.499 20.756,116.736 20.530,116.307 18.873 C 115.867 17.173,114.812 17.214,113.027 19.000 C 110.890 21.137,109.679 20.951,109.781 18.500 L 109.860 16.600 113.030 16.262 C 116.759 15.865,117.200 15.587,117.200 13.631 C 117.200 11.521,114.004 9.976,113.000 11.600 C 112.673 12.129,109.475 12.115,108.943 11.583 C 108.653 11.293,108.140 11.385,107.265 11.883 C 105.919 12.649,105.502 14.542,106.468 15.508 C 106.740 15.780,106.949 17.306,106.968 19.161 C 106.998 22.129,107.081 22.433,108.189 23.589 C 109.420 24.873,109.802 30.177,108.756 31.449 C 108.083 32.267,97.597 32.576,95.812 31.831 L 94.289 31.194 94.520 28.956 C 94.655 27.645,95.047 26.390,95.465 25.928 C 96.386 24.911,96.440 12.922,95.526 12.350 C 94.915 11.968,82.165 11.967,79.800 12.350 C 77.917 12.655,77.454 14.223,78.580 16.481 C 79.008 17.338,79.081 17.879,78.806 18.154 C 78.297 18.663,78.270 20.800,78.772 20.800 C 78.977 20.800,79.202 21.205,79.272 21.700 C 79.374 22.420,79.720 22.640,81.000 22.800 L 82.600 23.000 82.519 25.000 C 82.474 26.100,82.294 28.170,82.119 29.600 L 81.800 32.200 79.800 32.315 C 78.700 32.378,77.260 32.678,76.600 32.981 C 73.698 34.311,67.483 34.003,66.906 32.499 C 66.567 31.617,67.617 24.689,68.237 23.714 C 68.935 22.617,68.973 19.934,68.300 19.258 C 67.993 18.949,67.800 17.645,67.800 15.878 L 67.800 13.000 61.000 12.947 C 53.160 12.885,52.800 13.011,52.800 15.813 C 52.800 18.166,53.410 18.556,56.557 18.219 C 58.356 18.027,59.206 18.086,59.411 18.417 C 59.788 19.027,58.892 19.586,57.524 19.594 C 56.932 19.597,56.329 19.792,56.184 20.026 C 56.012 20.304,55.648 20.205,55.137 19.743 C 53.776 18.511,52.999 19.458,53.004 22.344 C 53.007 24.445,53.138 24.881,53.934 25.439 C 54.811 26.053,54.846 26.248,54.584 29.144 C 54.248 32.857,53.822 33.397,50.887 33.823 C 43.015 34.965,38.632 33.826,39.396 30.837 C 39.542 30.267,39.876 28.720,40.139 27.400 C 40.402 26.080,40.825 24.632,41.078 24.183 C 41.582 23.291,41.385 18.750,40.784 17.400 C 40.588 16.960,40.377 16.060,40.314 15.400 C 39.998 12.074,37.214 14.145,37.187 17.726 C 37.168 20.262,36.681 20.617,33.232 20.608 C 30.298 20.600,30.261 20.613,29.953 21.752 C 29.781 22.386,29.280 23.290,28.837 23.760 C 28.013 24.638,26.823 28.858,26.797 31.000 C 26.772 32.987,25.719 33.871,23.072 34.125 C 21.792 34.248,20.470 34.576,20.133 34.855 C 19.396 35.467,15.082 35.445,14.876 34.829 C 14.798 34.593,14.320 34.400,13.816 34.400 C 12.381 34.400,11.867 33.454,12.131 31.298 C 12.562 27.775,13.202 25.403,13.852 24.920 C 14.535 24.413,14.330 18.705,13.595 17.800 C 13.417 17.580,13.210 16.860,13.135 16.200 C 12.955 14.600,9.474 14.244,7.276 15.600 C 5.460 16.721,5.491 19.319,7.324 19.529 C 8.867 19.706,8.584 20.770,6.838 21.348 C 5.433 21.814,5.076 22.219,4.410 24.100 C 4.122 24.911,3.752 25.200,2.997 25.200 C 2.378 25.200,1.884 25.476,1.745 25.900 C 1.618 26.285,1.219 27.230,0.857 28.000 C 0.250 29.293,0.192 48.612,0.099 281.300 L -0.002 533.200 136.999 533.200 L 274.000 533.200 274.000 531.800 C 274.000 530.822,274.181 530.400,274.600 530.400 C 275.019 530.400,275.200 530.822,275.200 531.800 L 275.200 533.200 286.200 533.200 L 297.200 533.200 297.200 531.200 C 297.200 529.689,297.347 529.200,297.800 529.200 C 298.216 529.200,298.400 529.619,298.400 530.567 C 298.400 533.348,297.779 533.200,309.414 533.200 L 319.942 533.200 320.217 531.000 C 320.586 528.053,321.512 527.989,321.679 530.900 L 321.800 533.000 332.087 533.086 C 342.262 533.172,342.380 533.163,342.987 532.297 C 343.676 531.313,343.811 528.978,343.200 528.600 C 342.980 528.464,342.787 526.608,342.770 524.476 C 342.725 518.596,342.416 517.113,341.100 516.483 C 339.789 515.855,339.711 515.383,340.818 514.790 C 341.530 514.409,341.621 514.029,341.518 511.876 L 341.400 509.400 334.233 509.200 C 324.085 508.917,323.845 508.063,333.870 507.909 L 341.000 507.800 341.117 506.600 C 341.703 500.602,342.734 506.645,343.813 522.400 C 343.956 524.490,344.214 526.380,344.386 526.600 C 344.558 526.820,344.788 528.311,344.897 529.914 C 345.143 533.524,343.937 533.158,354.200 532.741 C 364.624 532.317,366.548 531.803,366.324 529.499 C 366.231 528.543,366.375 528.188,366.900 528.083 C 367.457 527.970,367.600 528.219,367.600 529.301 C 367.600 531.718,372.623 533.905,373.800 532.000 C 373.946 531.764,376.624 531.581,380.324 531.553 C 383.776 531.527,387.140 531.388,387.800 531.245 L 389.000 530.985 388.854 526.393 C 388.773 523.867,388.552 521.606,388.363 521.370 C 388.173 521.133,387.823 518.349,387.585 515.182 C 387.023 507.712,388.162 508.400,376.359 508.400 L 366.415 508.400 366.149 509.462 C 365.771 510.968,366.733 522.693,367.315 523.682 C 367.698 524.331,367.694 524.543,367.300 524.686 C 367.025 524.785,366.800 525.302,366.800 525.833 C 366.800 526.365,366.644 526.800,366.452 526.800 C 366.035 526.800,365.610 524.447,365.604 522.095 C 365.602 521.157,365.436 520.077,365.235 519.695 C 365.034 519.313,364.676 516.932,364.439 514.405 C 364.062 510.384,363.895 509.723,363.104 509.114 C 362.100 508.341,357.829 508.106,357.400 508.800 C 357.056 509.356,346.128 509.331,345.784 508.773 C 345.271 507.945,346.118 507.827,354.158 507.615 C 362.841 507.385,363.600 507.203,363.600 505.351 C 363.600 504.110,364.315 504.124,364.628 505.371 C 365.136 507.392,365.611 507.495,373.500 507.290 C 377.515 507.186,380.800 506.943,380.800 506.750 C 380.800 506.228,383.494 506.327,384.383 506.882 C 386.390 508.136,387.785 500.550,386.052 497.800 C 385.913 497.580,385.530 494.430,385.200 490.800 L 384.600 484.200 382.700 484.078 C 381.655 484.011,380.800 483.786,380.800 483.578 C 380.800 483.370,380.794 483.065,380.787 482.900 C 380.779 482.735,381.454 482.510,382.287 482.400 C 383.358 482.258,383.915 481.937,384.195 481.300 C 384.698 480.153,385.109 480.153,385.272 481.300 C 385.427 482.392,388.179 482.632,395.500 482.192 L 400.000 481.921 400.000 470.572 L 400.000 459.223 393.746 459.378 C 387.162 459.542,386.400 459.457,386.400 458.557 C 386.400 458.103,387.654 458.000,393.200 458.000 L 400.000 458.000 400.000 435.680 C 400.000 418.601,399.885 413.245,399.510 412.870 C 399.123 412.483,399.123 412.215,399.510 411.595 C 400.338 410.269,400.215 16.524,399.386 17.211 C 398.893 17.621,398.589 17.622,397.834 17.218 C 396.880 16.708,394.929 16.913,393.474 17.675 C 392.448 18.213,391.200 21.349,391.200 23.389 C 391.200 26.256,390.452 26.777,386.159 26.895 C 383.949 26.956,382.297 26.821,381.959 26.553 C 381.651 26.309,380.934 25.999,380.365 25.864 C 378.092 25.322,377.336 24.247,376.797 20.784 C 376.263 17.345,376.380 16.951,378.000 16.734 C 378.899 16.614,379.000 16.418,379.000 14.800 L 379.000 13.000 375.581 13.007 C 372.656 13.013,371.998 13.143,371.027 13.907 C 370.403 14.398,369.648 14.800,369.349 14.800 C 369.051 14.800,368.582 15.160,368.307 15.600 C 368.032 16.040,367.603 16.400,367.353 16.400 C 367.103 16.400,366.671 16.674,366.393 17.009 C 366.115 17.344,365.571 17.518,365.186 17.395 C 364.230 17.092,362.915 19.860,362.555 22.935 C 362.364 24.570,362.089 25.326,361.641 25.456 C 361.288 25.558,360.490 25.902,359.868 26.220 C 358.581 26.879,354.574 27.006,354.200 26.400 C 354.064 26.180,353.181 26.000,352.238 26.000 C 349.852 26.000,349.336 25.269,348.990 21.400 C 348.833 19.640,348.537 17.991,348.333 17.736 C 348.100 17.445,348.118 17.174,348.381 17.012 C 348.997 16.631,348.892 15.107,348.145 13.611 L 347.491 12.298 343.245 12.581 C 338.446 12.900,337.384 13.418,337.751 15.256 C 337.887 15.933,337.750 16.509,337.383 16.814 C 337.062 17.080,336.800 17.555,336.800 17.870 C 336.800 18.185,336.350 19.105,335.800 19.914 C 335.094 20.953,334.800 21.923,334.800 23.213 C 334.800 25.312,334.293 26.000,332.744 26.000 C 332.141 26.000,331.536 26.180,331.400 26.400 C 330.152 28.419,321.200 25.985,321.200 23.627 C 321.200 23.040,321.041 22.389,320.846 22.180 C 320.651 21.971,320.370 20.782,320.222 19.538 C 319.935 17.131,320.220 16.600,321.800 16.600 C 322.531 16.600,322.600 16.333,322.600 13.521 C 322.600 11.591,322.787 10.255,323.100 9.941 C 324.904 8.134,322.232 5.742,320.331 7.462 C 319.650 8.079,319.548 8.077,318.837 7.434 C 317.160 5.916,315.400 6.718,315.400 9.000 L 315.400 11.000 317.600 11.000 C 320.607 11.000,320.765 12.104,317.800 12.400 C 315.884 12.592,315.795 12.655,315.675 13.900 C 315.600 14.675,315.327 15.200,315.000 15.200 C 314.673 15.200,314.400 14.675,314.325 13.900 C 314.162 12.205,312.484 11.892,310.687 13.220 C 309.610 14.016,309.454 14.040,309.125 13.452 C 308.644 12.593,307.639 12.619,307.327 13.500 C 307.190 13.885,306.860 14.470,306.592 14.800 C 305.496 16.153,305.506 19.865,306.608 20.668 L 307.615 21.401 306.808 22.985 C 306.363 23.856,306.000 25.060,306.000 25.661 C 306.000 27.228,305.631 27.331,299.736 27.406 C 293.078 27.490,293.027 27.453,292.624 22.248 C 292.356 18.779,292.375 18.670,293.410 17.590 C 294.618 16.328,295.342 8.535,294.360 7.352 C 293.831 6.714,292.340 6.620,291.770 7.190 M299.280 7.280 C 298.610 7.950,298.627 14.966,299.300 15.496 C 301.428 17.172,303.611 15.856,302.796 13.388 C 302.443 12.319,302.433 11.807,302.757 11.483 C 304.209 10.031,302.997 6.800,301.000 6.800 C 300.318 6.800,299.544 7.016,299.280 7.280 M307.462 7.531 C 306.138 8.995,306.810 12.754,308.191 11.608 C 308.497 11.354,309.884 11.106,311.273 11.057 C 314.012 10.960,314.477 10.357,313.824 7.752 C 313.502 6.472,308.575 6.302,307.462 7.531 M327.281 7.302 C 326.404 8.360,326.279 10.003,327.015 10.816 C 327.688 11.560,327.689 11.639,327.030 12.367 C 325.665 13.876,326.335 15.000,328.600 15.000 C 330.870 15.000,331.838 12.776,329.700 12.472 C 328.590 12.314,328.564 11.938,329.600 11.000 C 330.496 10.189,330.681 8.041,329.920 7.280 C 329.293 6.653,327.810 6.665,327.281 7.302 M271.298 8.062 C 271.007 8.353,270.800 9.598,270.800 11.056 C 270.800 12.429,270.620 13.664,270.400 13.800 C 269.170 14.560,271.399 18.943,272.905 18.725 C 274.058 18.558,274.460 16.527,274.313 11.606 L 274.200 7.800 272.998 7.682 C 272.337 7.617,271.572 7.788,271.298 8.062 M335.107 8.644 C 334.479 10.023,335.583 10.952,337.392 10.564 C 339.000 10.220,339.200 10.075,339.200 9.256 C 339.200 7.354,335.919 6.863,335.107 8.644 M349.439 8.338 C 349.300 8.561,349.382 8.865,349.620 9.012 C 350.235 9.393,350.632 8.872,350.118 8.358 C 349.831 8.071,349.607 8.064,349.439 8.338 M356.016 8.581 C 354.654 10.221,357.133 11.621,358.576 10.026 C 359.178 9.362,359.219 9.105,358.806 8.608 C 358.167 7.837,356.645 7.823,356.016 8.581 M241.304 8.882 C 240.460 9.913,240.499 17.253,241.351 17.756 C 241.919 18.091,242.147 18.078,242.285 17.700 C 242.513 17.071,244.087 17.047,244.703 17.663 C 245.817 18.777,246.275 17.357,246.237 12.903 L 246.200 8.600 243.964 8.482 C 242.493 8.404,241.583 8.541,241.304 8.882 M214.729 9.080 C 212.955 9.358,212.764 9.956,212.886 14.857 L 213.000 19.400 214.528 19.526 C 216.761 19.710,217.314 19.071,217.043 16.623 C 216.920 15.510,216.840 14.240,216.865 13.800 C 217.150 8.818,217.100 8.709,214.729 9.080 M343.000 9.200 C 342.840 9.458,342.890 9.850,343.110 10.070 C 343.376 10.336,343.606 10.313,343.800 10.000 C 343.960 9.742,343.910 9.350,343.690 9.130 C 343.424 8.864,343.194 8.887,343.000 9.200 M384.015 9.782 C 383.458 10.453,383.780 11.200,384.624 11.200 C 384.941 11.200,385.200 11.380,385.200 11.600 C 385.200 12.262,386.193 12.052,387.111 11.197 C 387.591 10.750,387.871 10.130,387.744 9.797 C 387.442 9.012,384.663 9.001,384.015 9.782 M184.498 10.462 C 183.904 11.056,183.831 12.800,184.400 12.800 C 184.969 12.800,184.896 15.453,184.300 16.431 C 183.860 17.153,183.943 17.367,185.000 18.231 C 185.660 18.771,186.510 19.506,186.889 19.864 C 188.367 21.264,188.836 19.971,188.712 14.841 L 188.600 10.200 186.798 10.082 C 185.742 10.013,184.790 10.170,184.498 10.462 M155.799 10.900 C 155.703 11.175,155.663 13.560,155.712 16.200 L 155.800 21.000 157.451 21.121 C 160.183 21.320,160.494 20.698,160.193 15.648 C 159.866 10.190,159.962 10.400,157.800 10.400 C 156.700 10.400,155.905 10.599,155.799 10.900 M127.462 11.531 C 126.727 12.344,126.534 15.788,127.200 16.200 C 127.420 16.336,127.600 17.405,127.600 18.575 C 127.600 21.154,128.125 21.693,130.470 21.524 L 132.200 21.400 132.149 16.700 C 132.115 13.607,131.928 11.795,131.600 11.400 C 130.891 10.546,128.279 10.629,127.462 11.531 M200.000 12.167 C 200.000 14.065,200.367 14.400,202.443 14.400 C 203.519 14.400,204.400 14.580,204.400 14.800 C 204.400 15.020,203.626 15.200,202.680 15.200 C 200.677 15.200,200.000 15.725,200.000 17.280 C 200.000 18.697,199.488 18.704,198.463 17.300 L 197.660 16.200 197.237 17.307 C 196.865 18.281,195.475 19.200,194.374 19.200 C 193.722 19.200,193.970 18.151,194.800 17.400 C 195.240 17.002,195.600 16.257,195.600 15.746 C 195.600 15.087,195.892 14.742,196.599 14.565 C 197.196 14.415,197.949 13.688,198.472 12.757 C 199.474 10.975,200.000 10.772,200.000 12.167 M99.074 12.300 C 98.978 12.465,99.038 13.590,99.205 14.800 C 99.373 16.010,99.416 17.849,99.301 18.887 C 99.003 21.571,99.906 22.890,101.924 22.723 L 103.400 22.600 103.294 20.400 C 103.235 19.190,103.189 17.340,103.191 16.289 C 103.194 14.648,103.061 14.327,102.252 14.020 C 101.734 13.823,101.212 13.288,101.092 12.831 C 100.882 12.027,99.450 11.650,99.074 12.300 M71.340 13.012 C 70.906 14.144,71.913 21.684,72.589 22.360 C 74.878 24.649,76.741 15.618,74.499 13.100 C 73.727 12.232,71.661 12.175,71.340 13.012 M256.400 13.186 C 256.400 13.747,255.015 14.400,253.826 14.400 C 252.654 14.400,252.399 13.364,253.500 13.076 C 254.798 12.736,256.400 12.797,256.400 13.186 M354.898 13.262 C 354.196 13.964,354.265 16.990,354.997 17.598 C 356.365 18.733,358.459 17.015,358.321 14.871 C 358.192 12.879,356.212 11.948,354.898 13.262 M44.250 13.814 C 43.916 14.685,43.973 19.800,44.339 21.800 L 44.632 23.400 46.404 23.283 C 49.026 23.110,50.670 20.831,49.220 19.380 C 49.012 19.171,48.787 17.740,48.720 16.200 L 48.600 13.400 46.550 13.281 C 44.951 13.188,44.445 13.305,44.250 13.814 M349.757 14.167 C 349.426 15.029,349.887 16.104,350.500 15.900 C 350.775 15.808,351.000 15.313,351.000 14.800 C 351.000 13.704,350.109 13.250,349.757 14.167 M24.772 14.743 C 24.039 15.336,23.928 15.631,24.278 16.054 C 24.526 16.354,24.790 17.140,24.865 17.800 C 24.999 18.988,25.022 18.999,27.200 18.884 C 28.410 18.820,30.679 18.780,32.243 18.794 C 35.603 18.825,36.105 18.435,35.924 15.930 L 35.800 14.200 30.759 14.088 C 26.288 13.990,25.610 14.064,24.772 14.743 M16.950 14.987 C 16.383 16.463,17.239 23.112,18.094 23.870 C 18.691 24.400,18.965 24.463,19.092 24.100 C 19.188 23.825,19.707 23.600,20.246 23.600 C 21.581 23.600,21.767 22.855,21.221 19.697 C 20.964 18.214,20.720 16.460,20.677 15.800 C 20.586 14.377,17.446 13.692,16.950 14.987 M0.000 17.600 C 0.000 20.751,0.090 20.818,2.359 19.333 C 5.358 17.369,5.141 14.800,1.976 14.800 L 0.000 14.800 0.000 17.600 M86.000 15.800 C 86.336 16.684,86.614 16.800,88.390 16.800 C 89.496 16.800,90.400 16.980,90.400 17.200 C 90.400 17.420,89.858 17.600,89.195 17.600 C 86.758 17.600,84.800 19.232,84.800 21.262 C 84.800 22.108,84.620 22.800,84.400 22.800 C 84.180 22.800,84.000 22.279,84.000 21.641 C 84.000 20.818,83.595 20.127,82.600 19.254 C 81.009 17.857,80.826 17.200,82.026 17.200 C 83.303 17.200,84.400 16.454,84.400 15.586 C 84.400 14.459,85.549 14.613,86.000 15.800 M385.428 15.155 C 385.023 15.811,386.242 16.472,386.743 15.868 C 386.991 15.570,387.075 15.208,386.930 15.063 C 386.553 14.686,385.685 14.739,385.428 15.155 M144.530 15.463 C 145.020 15.954,143.908 16.800,142.774 16.800 C 142.095 16.800,141.420 17.122,141.079 17.609 C 140.581 18.320,140.452 18.344,140.011 17.814 C 139.299 16.956,139.801 16.000,140.964 16.000 C 141.508 16.000,142.064 15.820,142.200 15.600 C 142.477 15.153,144.123 15.056,144.530 15.463 M25.475 20.658 C 24.947 21.186,25.185 24.689,25.782 25.185 C 26.629 25.888,27.206 25.340,27.160 23.876 C 27.082 21.389,26.279 19.854,25.475 20.658 M176.135 239.528 C 176.792 240.254,176.320 242.388,175.500 242.397 C 175.335 242.399,175.200 242.599,175.200 242.842 C 175.200 243.424,173.169 246.041,170.523 248.870 C 169.355 250.119,168.399 251.469,168.399 251.870 C 168.398 252.272,168.050 253.170,167.625 253.866 C 165.411 257.497,165.489 265.282,167.758 267.165 C 169.316 268.458,174.000 265.033,174.000 262.600 C 174.000 256.892,180.303 248.989,180.728 254.165 C 180.916 256.462,180.641 257.144,178.403 259.919 C 174.690 264.525,175.728 267.600,180.994 267.600 C 184.031 267.600,189.177 262.487,189.790 258.860 C 189.944 257.947,190.214 257.200,190.390 257.200 C 190.661 257.200,191.309 254.430,191.387 252.936 C 191.400 252.681,191.723 252.127,192.105 251.705 C 192.487 251.282,192.800 250.647,192.800 250.292 C 192.800 249.937,192.955 249.551,193.145 249.434 C 193.335 249.317,193.717 248.410,193.994 247.420 C 194.767 244.662,196.939 242.341,197.757 243.400 C 199.016 245.031,198.275 249.204,196.169 252.341 C 195.526 253.298,194.721 254.576,194.380 255.181 C 194.039 255.786,193.139 257.249,192.380 258.432 C 189.981 262.170,190.545 268.800,193.262 268.800 C 193.668 268.800,194.000 268.655,194.000 268.477 C 194.000 268.299,194.712 267.840,195.582 267.456 C 197.017 266.823,200.124 263.815,201.424 261.800 C 201.708 261.360,202.019 259.692,202.114 258.094 C 202.229 256.159,202.507 254.945,202.944 254.462 C 203.305 254.063,203.600 253.228,203.600 252.606 C 203.600 251.984,204.050 250.886,204.600 250.164 C 205.150 249.443,205.600 248.574,205.600 248.233 C 205.600 247.891,206.140 246.734,206.800 245.662 C 207.460 244.589,208.000 243.547,208.000 243.347 C 208.000 242.889,210.362 239.998,210.729 240.006 C 212.109 240.037,211.962 240.825,210.242 242.621 C 209.229 243.678,208.400 244.846,208.400 245.216 C 208.400 245.586,207.951 246.550,207.402 247.358 C 206.854 248.167,206.292 249.587,206.155 250.514 C 206.017 251.441,205.690 252.380,205.427 252.600 C 204.793 253.130,203.841 256.620,204.180 257.168 C 204.661 257.947,205.542 257.622,206.264 256.400 C 206.654 255.740,207.114 255.200,207.286 255.200 C 207.459 255.200,207.601 254.885,207.602 254.500 C 207.603 254.115,208.142 252.990,208.800 252.000 C 209.458 251.010,209.997 249.990,209.998 249.732 C 209.999 249.475,210.300 248.665,210.668 247.932 C 211.035 247.200,211.485 246.287,211.668 245.905 C 211.850 245.523,212.000 244.488,212.000 243.605 C 212.000 242.016,212.610 241.438,213.057 242.604 C 213.513 243.792,212.335 248.370,211.154 250.000 C 210.519 250.876,210.000 251.787,210.000 252.024 C 210.000 252.262,209.460 253.241,208.800 254.200 C 208.140 255.159,207.600 256.227,207.600 256.572 C 207.600 256.917,207.420 257.200,207.200 257.200 C 206.980 257.200,206.800 257.396,206.800 257.636 C 206.800 257.876,205.900 259.082,204.800 260.316 C 202.899 262.449,202.370 263.687,203.155 264.172 C 203.350 264.293,203.635 265.068,203.789 265.896 C 204.261 268.443,205.928 269.472,207.905 268.436 C 208.287 268.236,209.171 267.824,209.869 267.520 C 211.898 266.637,218.400 258.776,218.400 257.207 C 218.400 256.452,221.222 250.800,221.599 250.800 C 222.063 250.800,223.267 252.029,223.114 252.346 C 223.047 252.486,222.565 253.500,222.043 254.600 C 221.521 255.700,220.578 257.352,219.947 258.272 C 219.316 259.192,218.800 260.078,218.800 260.241 C 218.800 260.404,218.531 260.834,218.202 261.198 C 217.360 262.129,216.959 265.428,217.595 266.194 C 218.263 266.999,221.036 267.003,221.345 266.200 C 221.471 265.870,221.838 265.600,222.161 265.600 C 222.694 265.600,225.600 262.451,225.600 261.873 C 225.600 261.738,226.140 260.776,226.800 259.736 C 228.906 256.415,228.416 254.579,225.100 253.363 C 223.583 252.807,224.432 252.292,226.469 252.534 C 230.298 252.987,230.709 256.399,227.500 261.095 C 226.455 262.624,225.600 264.047,225.600 264.257 C 225.600 265.035,222.546 267.523,221.000 268.005 C 220.120 268.280,219.214 268.651,218.986 268.830 C 218.491 269.219,216.000 267.376,216.000 266.620 C 216.000 265.137,214.830 265.112,213.139 266.560 C 212.213 267.352,211.308 268.000,211.128 268.000 C 210.948 268.000,210.800 268.429,210.800 268.953 C 210.800 270.111,206.709 270.802,204.601 270.000 C 203.958 269.756,203.057 269.650,202.599 269.764 C 201.835 269.956,201.769 269.804,201.784 267.887 C 201.806 264.988,200.901 264.930,198.000 267.645 C 194.107 271.288,189.209 270.421,189.201 266.087 C 189.198 264.180,188.013 264.611,185.199 267.545 C 182.033 270.845,181.209 270.977,177.600 268.766 C 177.270 268.564,176.613 268.230,176.140 268.024 C 175.668 267.819,174.995 267.243,174.646 266.745 L 174.012 265.839 172.906 266.844 C 172.298 267.397,171.297 268.063,170.682 268.324 C 169.965 268.629,169.607 269.050,169.682 269.499 C 169.865 270.585,167.069 270.499,166.859 269.413 C 166.776 268.980,166.288 268.076,165.776 267.404 C 164.424 265.632,163.852 262.685,164.408 260.365 C 164.655 259.337,164.799 258.236,164.728 257.920 C 164.658 257.603,164.954 256.685,165.387 255.879 C 166.308 254.166,165.798 253.006,164.571 254.024 C 164.206 254.327,163.604 254.580,163.231 254.587 C 161.578 254.619,158.473 257.344,157.975 259.200 C 157.709 260.190,157.274 261.360,157.007 261.800 C 156.741 262.240,156.215 263.590,155.838 264.800 C 155.461 266.010,154.918 267.450,154.631 268.000 C 154.344 268.550,153.996 269.473,153.859 270.052 C 153.352 272.185,149.200 270.774,149.200 268.469 C 149.200 268.153,148.818 267.276,148.351 266.521 C 147.432 265.033,147.455 261.582,148.387 261.271 C 148.642 261.186,149.017 260.682,149.219 260.151 C 149.421 259.620,150.039 259.013,150.593 258.803 C 151.147 258.592,151.600 258.278,151.600 258.105 C 151.600 257.932,152.783 257.451,154.229 257.037 C 157.188 256.190,157.957 255.381,158.105 252.963 L 158.200 251.400 156.000 251.167 C 153.115 250.862,149.600 248.736,149.600 247.297 C 149.600 245.684,146.625 244.815,146.157 246.291 C 145.630 247.952,144.594 250.219,144.253 250.460 C 144.050 250.602,144.004 251.033,144.151 251.417 C 144.304 251.816,144.169 252.392,143.837 252.759 C 143.518 253.112,143.198 254.211,143.128 255.201 C 143.008 256.886,142.922 257.008,141.766 257.120 C 140.348 257.259,139.256 256.313,139.896 255.500 C 140.112 255.225,140.415 254.460,140.568 253.800 C 140.722 253.140,141.186 251.880,141.600 251.000 C 142.587 248.905,143.587 245.969,143.594 245.146 C 143.604 243.995,144.693 242.336,145.932 241.583 L 147.134 240.852 147.808 242.274 C 148.928 244.634,154.318 250.000,155.568 250.000 C 157.605 250.000,161.200 247.694,161.200 246.387 C 161.200 246.008,161.470 245.474,161.800 245.200 C 162.130 244.926,162.400 244.262,162.400 243.724 C 162.400 242.446,164.277 239.978,165.029 240.267 C 166.473 240.821,165.296 244.087,161.954 248.800 C 159.083 252.849,158.918 255.593,161.668 253.558 C 162.401 253.016,163.450 252.376,164.000 252.134 C 165.966 251.272,168.749 248.386,169.832 246.086 C 170.425 244.829,171.335 243.291,171.855 242.669 C 172.375 242.047,172.800 241.339,172.800 241.095 C 172.800 239.505,175.125 238.412,176.135 239.528 M195.680 246.480 C 195.416 246.744,195.200 247.284,195.200 247.680 C 195.200 248.076,195.040 248.400,194.843 248.400 C 194.474 248.400,193.912 250.001,193.789 251.400 C 193.750 251.840,193.647 252.380,193.559 252.600 C 193.472 252.820,193.535 253.045,193.700 253.100 C 193.865 253.155,193.955 253.125,193.900 253.032 C 193.845 252.940,194.168 252.445,194.618 251.932 C 195.068 251.420,195.653 250.505,195.918 249.900 C 196.183 249.295,196.601 248.367,196.847 247.838 C 197.524 246.382,196.717 245.443,195.680 246.480 M177.905 255.509 C 176.890 256.673,176.326 258.030,176.581 258.695 C 176.925 259.591,179.200 257.379,179.200 256.149 C 179.200 254.940,178.641 254.665,177.905 255.509 M152.829 258.991 C 149.049 260.357,148.275 263.454,150.506 268.279 C 151.483 270.392,152.845 269.728,153.807 266.669 C 154.164 265.531,154.604 264.240,154.783 263.800 C 156.750 258.970,156.255 257.753,152.829 258.991 M191.924 291.111 C 191.995 292.100,191.784 293.351,191.424 294.073 C 191.081 294.760,190.800 295.537,190.800 295.799 C 190.800 296.062,190.456 296.587,190.036 296.968 C 189.154 297.766,189.508 295.178,190.497 293.593 C 191.202 292.464,189.899 291.059,189.104 292.091 C 188.607 292.736,187.355 293.189,187.144 292.800 C 187.085 292.690,187.471 291.826,188.003 290.881 C 189.433 288.336,191.733 288.471,191.924 291.111 M174.722 293.516 C 174.616 295.359,174.256 297.198,173.841 298.016 C 173.456 298.777,172.862 300.208,172.522 301.196 C 172.181 302.184,171.579 303.220,171.183 303.497 C 170.787 303.774,170.348 304.528,170.206 305.173 C 170.064 305.817,169.690 306.559,169.374 306.821 C 169.058 307.083,168.800 307.558,168.800 307.877 C 168.800 308.195,167.630 309.954,166.200 311.785 C 163.081 315.780,162.799 317.255,164.831 318.964 C 166.240 320.150,168.571 320.360,169.824 319.413 C 170.251 319.090,170.870 318.818,171.200 318.808 C 173.280 318.749,178.514 312.570,179.000 309.600 C 179.162 308.610,179.724 307.064,180.248 306.165 C 180.771 305.266,181.201 304.186,181.203 303.765 C 181.204 303.344,181.563 302.460,182.000 301.800 C 182.437 301.140,182.801 300.060,182.809 299.400 C 182.829 297.807,185.522 294.625,186.384 295.177 C 186.894 295.503,186.890 295.644,186.354 296.276 C 184.857 298.041,182.549 303.969,182.951 305.016 C 183.288 305.896,184.839 305.738,185.084 304.800 C 185.199 304.360,185.452 304.000,185.647 304.000 C 186.216 304.000,186.053 305.058,185.400 305.600 C 185.070 305.874,184.800 306.427,184.800 306.829 C 184.800 307.231,184.575 307.704,184.300 307.880 C 184.025 308.056,183.620 308.496,183.400 308.857 C 183.180 309.218,182.100 310.658,181.000 312.057 L 179.000 314.600 179.024 318.084 C 179.057 322.802,181.398 324.929,184.705 323.247 C 185.087 323.052,185.925 322.647,186.567 322.347 C 188.183 321.589,192.000 317.913,192.000 317.113 C 192.000 316.230,195.023 311.723,195.947 311.228 C 196.352 311.012,197.446 310.197,198.379 309.417 C 200.425 307.708,204.291 307.298,204.671 308.750 C 205.017 310.074,206.650 310.660,207.599 309.801 C 209.147 308.400,208.846 311.356,207.054 315.163 C 206.804 315.693,206.605 317.987,206.611 320.263 C 206.619 323.034,206.476 324.400,206.179 324.400 C 205.608 324.400,204.860 322.913,204.714 321.488 C 204.559 319.977,203.856 319.922,203.600 321.400 C 203.430 322.385,203.195 322.603,202.296 322.619 C 200.958 322.641,200.845 321.759,202.000 320.291 C 202.440 319.731,202.800 319.077,202.800 318.837 C 202.800 318.597,203.081 318.085,203.425 317.700 C 204.581 316.405,206.000 313.970,206.000 313.282 C 206.000 312.412,203.502 310.400,202.422 310.400 C 200.819 310.400,193.200 318.639,193.200 320.372 C 193.200 323.415,197.419 325.176,199.860 323.150 C 200.274 322.806,200.400 322.848,200.400 323.328 C 200.400 325.780,194.613 325.975,192.354 323.600 C 190.594 321.750,190.079 321.659,188.531 322.924 C 186.401 324.664,182.769 326.173,181.945 325.659 C 181.541 325.406,180.930 325.200,180.587 325.200 C 179.525 325.200,178.000 323.338,178.000 322.042 C 178.000 321.385,177.820 320.736,177.600 320.600 C 177.380 320.464,177.197 319.778,177.194 319.076 C 177.182 316.659,176.669 316.502,174.535 318.265 C 169.474 322.445,164.298 323.105,162.573 319.790 C 162.119 318.916,161.444 318.142,161.073 318.071 C 160.325 317.927,160.185 317.380,160.800 317.000 C 161.020 316.864,161.200 315.973,161.200 315.019 C 161.200 312.711,162.332 307.224,163.037 306.114 C 163.347 305.627,163.600 305.030,163.600 304.787 C 163.600 304.545,164.037 303.773,164.572 303.073 C 165.106 302.372,165.908 300.989,166.353 300.000 C 167.138 298.254,168.484 296.400,168.964 296.400 C 169.465 296.400,169.161 297.859,168.399 299.110 C 167.959 299.830,167.600 300.597,167.600 300.814 C 167.600 301.031,166.960 302.119,166.177 303.233 C 164.473 305.658,163.184 310.153,163.973 310.918 C 165.631 312.525,173.934 297.343,173.003 294.409 C 172.718 293.511,171.620 293.340,170.880 294.080 C 170.507 294.453,170.400 294.435,170.400 293.997 C 170.400 293.148,173.252 290.400,174.133 290.400 C 174.842 290.400,174.889 290.644,174.722 293.516 M148.146 297.180 C 149.783 297.802,150.039 306.987,148.435 307.522 C 148.196 307.601,148.000 307.934,148.000 308.260 C 148.000 308.586,147.550 309.443,147.000 310.164 C 145.730 311.829,145.695 311.706,147.733 312.724 C 154.144 315.925,153.265 326.224,146.299 329.538 C 142.030 331.569,132.015 331.799,130.752 329.895 C 130.253 329.143,128.999 329.847,127.887 331.503 C 126.432 333.669,126.118 333.637,125.917 331.300 C 125.537 326.888,128.720 324.612,131.098 327.594 C 131.837 328.521,132.423 328.771,134.399 329.000 C 135.720 329.153,136.899 329.437,137.019 329.631 C 137.139 329.825,137.578 329.771,137.994 329.511 C 138.588 329.140,138.977 329.159,139.801 329.601 C 140.540 329.996,140.933 330.033,141.126 329.726 C 141.459 329.195,144.188 328.405,145.700 328.402 C 146.305 328.401,146.800 328.216,146.800 327.990 C 146.800 327.765,147.255 327.407,147.810 327.196 C 148.366 326.985,148.935 326.494,149.075 326.106 C 149.216 325.718,149.661 324.922,150.065 324.338 C 150.873 323.171,151.146 318.000,150.400 318.000 C 150.180 318.000,150.000 317.712,150.000 317.360 C 150.000 314.401,145.180 313.197,142.042 315.371 C 139.683 317.006,137.000 317.027,137.000 315.412 C 137.000 314.077,138.210 313.216,140.100 313.206 C 140.705 313.203,141.200 313.020,141.200 312.800 C 141.200 312.580,141.629 312.400,142.153 312.400 C 145.827 312.400,149.952 301.091,147.191 298.591 C 146.570 298.030,146.271 297.969,145.911 298.329 C 145.652 298.588,145.112 298.800,144.712 298.800 C 143.563 298.800,141.194 300.494,138.765 303.050 C 136.581 305.351,136.057 306.226,134.542 310.098 C 133.690 312.277,133.054 312.365,132.879 310.329 C 132.783 309.202,132.954 308.791,133.731 308.282 C 134.340 307.883,134.808 307.085,134.984 306.143 C 135.139 305.317,135.520 304.278,135.831 303.835 C 136.141 303.392,136.510 302.163,136.650 301.105 C 136.960 298.770,137.295 298.511,138.692 299.529 L 139.770 300.314 141.460 298.929 C 143.846 296.974,146.073 296.391,148.146 297.180 M133.200 313.000 C 133.200 313.330,133.020 313.600,132.800 313.600 C 132.580 313.600,132.400 313.330,132.400 313.000 C 132.400 312.670,132.580 312.400,132.800 312.400 C 133.020 312.400,133.200 312.670,133.200 313.000 M132.212 316.700 C 132.060 317.305,131.681 317.944,131.368 318.120 C 131.056 318.296,130.800 318.791,130.800 319.220 C 130.800 319.649,130.604 320.000,130.365 320.000 C 129.846 320.000,130.271 316.872,130.894 316.100 C 131.679 315.128,132.510 315.507,132.212 316.700 M130.000 322.200 C 130.000 322.530,129.730 322.800,129.400 322.800 C 128.775 322.800,128.606 322.327,129.067 321.867 C 129.527 321.406,130.000 321.575,130.000 322.200 M268.000 393.033 C 268.000 393.740,267.139 393.617,266.892 392.875 C 266.805 392.614,267.018 392.400,267.367 392.400 C 267.715 392.400,268.000 392.685,268.000 393.033 M380.400 434.757 C 380.400 435.967,379.417 436.742,379.060 435.813 C 378.741 434.981,379.232 433.600,379.847 433.600 C 380.190 433.600,380.400 434.039,380.400 434.757 M395.501 435.500 C 395.624 435.871,394.881 436.000,392.633 436.000 C 389.825 436.000,389.162 435.771,389.883 435.050 C 390.374 434.559,395.321 434.955,395.501 435.500 M356.400 436.000 C 356.400 436.220,356.130 436.400,355.800 436.400 C 355.470 436.400,355.200 436.220,355.200 436.000 C 355.200 435.780,355.470 435.600,355.800 435.600 C 356.130 435.600,356.400 435.780,356.400 436.000 M380.800 437.400 C 380.800 437.730,380.631 438.000,380.424 438.000 C 379.919 438.000,379.558 437.375,379.878 437.056 C 380.328 436.605,380.800 436.781,380.800 437.400 M381.200 442.000 C 381.200 442.660,381.020 443.200,380.800 443.200 C 380.580 443.200,380.400 442.660,380.400 442.000 C 380.400 441.340,380.580 440.800,380.800 440.800 C 381.020 440.800,381.200 441.340,381.200 442.000 M337.600 458.800 C 337.600 459.680,337.435 460.400,337.233 460.400 C 336.714 460.400,336.530 459.656,336.724 458.336 C 336.974 456.635,337.600 456.967,337.600 458.800 M382.940 458.586 C 384.259 459.585,382.678 460.543,381.226 459.624 C 380.750 459.323,380.741 459.153,381.175 458.630 C 381.807 457.869,381.988 457.865,382.940 458.586 M360.166 459.023 C 361.145 460.002,360.135 460.907,358.938 460.123 C 358.340 459.731,357.600 459.639,356.582 459.830 C 355.412 460.049,355.136 459.991,355.280 459.554 C 355.380 459.249,356.255 458.892,357.231 458.760 C 358.204 458.628,359.122 458.493,359.271 458.460 C 359.421 458.427,359.823 458.680,360.166 459.023 M370.800 459.200 C 370.800 459.420,370.260 459.600,369.600 459.600 C 368.940 459.600,368.400 459.420,368.400 459.200 C 368.400 458.980,368.940 458.800,369.600 458.800 C 370.260 458.800,370.800 458.980,370.800 459.200 M379.200 459.200 C 379.200 459.420,378.750 459.600,378.200 459.600 C 377.650 459.600,377.200 459.420,377.200 459.200 C 377.200 458.980,377.650 458.800,378.200 458.800 C 378.750 458.800,379.200 458.980,379.200 459.200 M383.200 463.000 C 383.200 463.550,383.020 464.000,382.800 464.000 C 382.580 464.000,382.400 463.550,382.400 463.000 C 382.400 462.450,382.580 462.000,382.800 462.000 C 383.020 462.000,383.200 462.450,383.200 463.000 M360.800 464.800 C 360.800 465.240,360.620 465.600,360.400 465.600 C 360.180 465.600,360.000 465.240,360.000 464.800 C 360.000 464.360,360.180 464.000,360.400 464.000 C 360.620 464.000,360.800 464.360,360.800 464.800 M339.200 471.024 C 339.200 471.341,339.020 471.600,338.800 471.600 C 338.580 471.600,338.400 471.229,338.400 470.776 C 338.400 470.323,338.580 470.064,338.800 470.200 C 339.020 470.336,339.200 470.707,339.200 471.024 M384.000 472.576 C 384.000 473.113,384.180 473.664,384.400 473.800 C 385.056 474.205,384.887 476.400,384.200 476.400 C 383.846 476.400,383.598 476.031,383.596 475.500 C 383.593 475.005,383.480 473.925,383.343 473.100 C 383.179 472.105,383.248 471.600,383.548 471.600 C 383.796 471.600,384.000 472.039,384.000 472.576 M362.480 479.800 L 362.600 482.600 364.100 482.724 C 365.847 482.869,366.049 483.449,364.549 484.019 C 363.023 484.600,355.200 484.046,355.200 483.358 C 355.200 482.981,356.070 482.801,358.300 482.717 L 361.400 482.600 361.450 479.800 C 361.514 476.197,361.520 476.160,361.980 476.620 C 362.188 476.829,362.413 478.260,362.480 479.800 M339.600 478.800 C 339.600 479.460,339.420 480.000,339.200 480.000 C 338.980 480.000,338.800 479.460,338.800 478.800 C 338.800 478.140,338.980 477.600,339.200 477.600 C 339.420 477.600,339.600 478.140,339.600 478.800 M378.000 482.800 C 378.469 483.103,378.366 483.189,377.524 483.194 C 376.932 483.197,376.336 483.380,376.200 483.600 C 375.794 484.257,372.400 484.101,372.400 483.425 C 372.400 482.589,376.897 482.087,378.000 482.800 M318.000 484.000 C 318.000 484.533,317.733 484.800,317.200 484.800 C 316.429 484.800,316.116 484.017,316.667 483.467 C 317.217 482.916,318.000 483.229,318.000 484.000 M322.400 483.800 C 322.400 484.130,322.220 484.400,322.000 484.400 C 321.780 484.400,321.600 484.130,321.600 483.800 C 321.600 483.470,321.780 483.200,322.000 483.200 C 322.220 483.200,322.400 483.470,322.400 483.800 M331.200 483.800 C 331.200 484.130,330.930 484.400,330.600 484.400 C 330.270 484.400,330.000 484.130,330.000 483.800 C 330.000 483.470,330.270 483.200,330.600 483.200 C 330.930 483.200,331.200 483.470,331.200 483.800 M335.200 483.800 C 335.200 484.436,333.795 484.639,333.434 484.056 C 333.139 483.578,333.595 483.200,334.467 483.200 C 334.870 483.200,335.200 483.470,335.200 483.800 M341.200 483.776 C 341.200 484.093,341.020 484.464,340.800 484.600 C 340.580 484.736,340.400 485.287,340.400 485.824 C 340.400 486.425,340.169 486.800,339.800 486.800 C 339.425 486.800,339.200 486.421,339.200 485.787 C 339.200 485.231,338.930 484.671,338.600 484.545 C 337.331 484.058,337.969 483.200,339.600 483.200 C 340.726 483.200,341.200 483.371,341.200 483.776 M347.600 483.800 C 347.600 484.267,347.067 484.400,345.200 484.400 C 343.333 484.400,342.800 484.267,342.800 483.800 C 342.800 483.333,343.333 483.200,345.200 483.200 C 347.067 483.200,347.600 483.333,347.600 483.800 M386.037 483.755 C 385.550 484.342,385.774 487.159,386.422 488.600 C 386.619 489.040,386.856 491.290,386.947 493.600 C 387.152 498.770,387.806 505.362,388.174 505.958 C 388.471 506.439,395.903 506.572,398.500 506.143 L 400.000 505.895 400.000 494.548 L 400.000 483.200 393.249 483.200 C 387.978 483.200,386.397 483.322,386.037 483.755 M248.000 484.400 C 248.000 484.620,247.730 484.800,247.400 484.800 C 247.070 484.800,246.800 484.620,246.800 484.400 C 246.800 484.180,247.070 484.000,247.400 484.000 C 247.730 484.000,248.000 484.180,248.000 484.400 M282.800 484.400 C 282.800 484.620,282.260 484.800,281.600 484.800 C 280.940 484.800,280.400 484.620,280.400 484.400 C 280.400 484.180,280.940 484.000,281.600 484.000 C 282.260 484.000,282.800 484.180,282.800 484.400 M289.200 484.400 C 289.200 484.620,288.390 484.800,287.400 484.800 C 286.410 484.800,285.600 484.620,285.600 484.400 C 285.600 484.180,286.410 484.000,287.400 484.000 C 288.390 484.000,289.200 484.180,289.200 484.400 M296.400 484.400 C 296.400 484.629,295.200 484.800,293.600 484.800 C 292.000 484.800,290.800 484.629,290.800 484.400 C 290.800 484.171,292.000 484.000,293.600 484.000 C 295.200 484.000,296.400 484.171,296.400 484.400 M182.800 484.776 C 182.800 485.368,182.215 485.581,181.269 485.334 C 179.996 485.001,180.209 484.400,181.600 484.400 C 182.260 484.400,182.800 484.569,182.800 484.776 M340.800 488.800 C 340.800 489.244,340.533 489.600,340.200 489.600 C 339.867 489.600,339.600 489.244,339.600 488.800 C 339.600 488.356,339.867 488.000,340.200 488.000 C 340.533 488.000,340.800 488.356,340.800 488.800 M363.090 489.700 C 363.304 489.975,363.695 492.360,363.960 495.000 C 364.225 497.640,364.512 500.397,364.600 501.126 C 364.708 502.032,364.606 502.403,364.279 502.295 C 364.016 502.209,363.743 501.345,363.672 500.377 C 363.602 499.408,363.369 498.404,363.154 498.145 C 362.712 497.612,362.043 489.200,362.443 489.200 C 362.585 489.200,362.877 489.425,363.090 489.700 M341.200 495.600 C 341.200 496.700,341.020 497.600,340.800 497.600 C 340.580 497.600,340.400 496.700,340.400 495.600 C 340.400 494.500,340.580 493.600,340.800 493.600 C 341.020 493.600,341.200 494.500,341.200 495.600 M341.600 501.024 C 341.600 501.781,341.420 502.400,341.200 502.400 C 340.980 502.400,340.800 501.669,340.800 500.776 C 340.800 499.796,340.958 499.251,341.200 499.400 C 341.420 499.536,341.600 500.267,341.600 501.024 M324.800 508.555 C 324.800 509.229,319.288 509.695,318.500 509.087 C 317.429 508.262,318.129 508.000,321.400 508.000 C 324.033 508.000,324.800 508.125,324.800 508.555 M389.046 508.326 C 388.585 509.072,389.766 522.706,390.420 524.200 C 390.613 524.640,390.913 526.260,391.086 527.800 L 391.400 530.600 393.400 530.620 C 394.500 530.631,396.435 530.779,397.700 530.949 L 400.000 531.258 400.000 519.875 L 400.000 508.493 399.100 508.252 C 397.746 507.889,389.277 507.952,389.046 508.326 M264.000 509.000 C 264.000 509.333,263.644 509.600,263.200 509.600 C 262.403 509.600,262.160 509.174,262.667 508.667 C 263.154 508.179,264.000 508.391,264.000 509.000 M284.400 509.000 C 284.400 509.433,283.956 509.600,282.800 509.600 C 281.644 509.600,281.200 509.433,281.200 509.000 C 281.200 508.567,281.644 508.400,282.800 508.400 C 283.956 508.400,284.400 508.567,284.400 509.000 M291.800 509.000 C 291.800 509.220,290.495 509.453,288.900 509.518 C 286.468 509.616,286.000 509.532,286.000 509.000 C 286.000 508.468,286.468 508.384,288.900 508.482 C 290.495 508.547,291.800 508.780,291.800 509.000 M296.414 509.017 C 296.809 509.493,296.817 509.743,296.452 510.108 C 295.870 510.690,294.666 510.051,294.471 509.057 C 294.303 508.204,295.715 508.175,296.414 509.017 M306.701 509.100 C 306.827 509.479,305.842 509.600,302.633 509.600 C 299.094 509.600,298.400 509.499,298.400 508.986 C 298.400 508.177,306.431 508.287,306.701 509.100 M314.921 508.995 C 314.965 509.212,314.685 509.450,314.300 509.524 C 313.862 509.608,313.600 509.412,313.600 509.000 C 313.600 508.304,314.782 508.299,314.921 508.995 M297.200 515.200 C 297.200 516.080,297.020 516.800,296.800 516.800 C 296.580 516.800,296.400 516.080,296.400 515.200 C 296.400 514.320,296.580 513.600,296.800 513.600 C 297.020 513.600,297.200 514.320,297.200 515.200 " stroke="none" fill="#040404" fill-rule="evenodd"></path></g></svg>