<svg id="svg" xmlns="http://www.w3.org/2000/svg" xmlns:xlink="http://www.w3.org/1999/xlink" width="400" height="300" viewBox="0, 0, 400,300"><g id="svgg"><path id="path0" d="M70.800 22.400 C 70.552 22.684,70.204 23.198,70.026 23.542 C 69.848 23.885,69.535 24.167,69.330 24.167 C 68.547 24.167,68.217 24.967,68.755 25.561 C 69.397 26.271,69.722 26.259,69.722 25.526 C 69.722 25.204,70.107 24.456,70.577 23.862 C 71.483 22.718,71.687 21.382,70.800 22.400 M62.997 23.125 C 62.777 23.469,62.505 24.000,62.393 24.306 C 62.280 24.611,61.435 26.087,60.515 27.586 C 58.968 30.105,58.607 31.344,59.506 31.044 C 59.692 30.982,60.495 29.816,61.290 28.452 C 63.310 24.986,63.670 24.666,64.145 25.914 C 64.469 26.768,65.176 27.321,65.691 27.123 C 66.283 26.896,66.213 26.566,65.503 26.246 C 64.696 25.883,63.934 24.523,63.909 23.403 C 63.885 22.347,63.559 22.248,62.997 23.125 M93.373 23.911 C 92.860 24.528,92.526 25.119,92.630 25.223 C 92.734 25.327,92.944 25.189,93.097 24.916 C 93.270 24.607,93.562 24.480,93.870 24.577 C 94.460 24.765,95.083 24.110,94.953 23.439 C 94.794 22.615,94.336 22.752,93.373 23.911 M75.225 25.481 C 72.916 28.841,66.749 31.870,68.219 28.923 C 68.467 28.427,68.583 27.935,68.479 27.830 C 68.262 27.614,67.287 28.843,66.666 30.116 C 66.329 30.807,66.052 30.989,65.229 31.057 C 64.167 31.146,63.607 31.711,63.041 33.266 C 62.794 33.943,62.867 33.907,63.695 32.940 C 64.689 31.779,65.278 31.777,65.278 32.933 C 65.278 33.904,65.796 33.769,66.251 32.679 C 66.555 31.952,66.965 31.613,68.112 31.141 C 68.921 30.809,69.800 30.416,70.066 30.268 C 71.860 29.270,72.141 30.145,70.837 32.667 C 68.631 36.929,69.901 39.427,73.430 37.768 C 74.481 37.275,74.806 37.224,75.142 37.503 C 75.700 37.965,76.862 37.703,79.029 36.625 L 80.803 35.742 81.624 36.621 C 82.531 37.592,83.844 37.807,84.444 37.083 C 84.742 36.725,84.633 36.667,83.655 36.667 C 82.062 36.667,81.198 34.576,82.383 33.593 C 82.646 33.375,82.771 32.962,82.696 32.564 C 82.619 32.162,82.718 31.843,82.949 31.755 C 83.193 31.661,83.271 31.375,83.166 30.959 C 83.053 30.509,83.225 30.019,83.724 29.365 C 84.599 28.217,84.710 27.452,83.893 28.190 C 82.981 29.016,81.727 31.489,81.520 32.870 C 81.210 34.939,77.230 37.710,76.016 36.703 C 75.484 36.262,75.733 34.029,76.445 32.847 C 76.745 32.351,76.863 31.944,76.708 31.944 C 76.254 31.944,75.453 33.264,74.176 36.111 C 74.074 36.340,73.519 36.762,72.944 37.048 C 69.931 38.546,69.862 35.177,72.807 30.278 C 72.944 30.049,73.174 29.591,73.318 29.261 C 73.461 28.931,74.029 28.306,74.580 27.872 C 76.117 26.662,77.863 23.333,76.962 23.333 C 76.818 23.333,76.037 24.300,75.225 25.481 M86.722 24.804 C 85.759 25.797,85.562 26.291,86.289 25.883 C 86.540 25.743,86.972 25.687,87.249 25.760 C 87.616 25.856,87.803 25.690,87.939 25.148 C 88.242 23.942,87.705 23.790,86.722 24.804 M90.066 28.422 C 89.592 29.082,88.741 30.613,88.174 31.825 C 87.608 33.036,86.839 34.358,86.465 34.762 L 85.787 35.496 86.733 36.845 C 88.051 38.724,89.117 38.984,91.195 37.932 C 92.456 37.294,92.810 37.220,93.310 37.487 C 94.034 37.875,94.748 37.683,95.444 36.914 C 95.958 36.346,95.956 36.345,95.221 36.680 C 93.898 37.283,93.529 36.883,93.665 34.996 C 93.731 34.082,93.677 33.333,93.545 33.333 C 93.246 33.333,92.500 35.078,92.500 35.776 C 92.500 36.611,91.328 37.481,89.948 37.670 C 87.185 38.049,86.720 35.389,89.084 32.724 C 89.314 32.466,89.444 32.091,89.373 31.891 C 89.303 31.691,89.728 30.627,90.317 29.525 C 90.907 28.424,91.389 27.455,91.389 27.372 C 91.389 26.918,90.824 27.366,90.066 28.422 M84.894 29.287 C 84.494 29.812,84.170 30.405,84.175 30.606 C 84.186 31.109,85.833 29.260,85.833 28.746 C 85.833 28.149,85.706 28.223,84.894 29.287 M95.307 30.510 C 94.344 32.011,94.132 33.081,95.039 31.866 C 95.499 31.248,95.694 31.158,96.007 31.418 C 96.314 31.672,96.518 31.636,96.942 31.252 C 97.331 30.900,97.730 30.810,98.348 30.934 C 99.601 31.184,99.272 30.558,97.757 29.808 C 96.149 29.012,96.295 28.970,95.307 30.510 M78.041 30.154 C 77.418 30.818,77.403 30.896,77.849 31.145 C 78.115 31.295,78.333 31.688,78.333 32.020 L 78.333 32.624 78.781 31.985 C 79.856 30.450,79.227 28.892,78.041 30.154 M64.499 34.796 C 63.618 36.898,62.642 37.631,62.216 36.511 C 61.857 35.566,61.389 35.904,61.389 37.108 C 61.389 38.169,61.982 38.620,62.746 38.140 C 63.611 37.597,65.044 35.315,64.931 34.661 C 64.825 34.047,64.811 34.052,64.499 34.796 M208.183 39.741 C 208.082 39.904,208.230 40.205,208.510 40.410 C 209.004 40.771,209.004 40.802,208.489 41.370 C 208.127 41.771,207.867 41.867,207.673 41.673 C 207.190 41.190,207.046 41.331,206.078 43.228 C 205.206 44.937,203.105 47.222,202.407 47.222 C 202.246 47.222,201.773 47.548,201.357 47.947 C 199.206 50.008,199.727 46.572,202.014 43.611 C 202.803 42.590,203.366 41.095,203.180 40.511 C 202.914 39.671,202.393 39.933,201.843 41.184 C 200.024 45.314,199.790 45.577,197.750 45.773 L 196.328 45.910 194.546 44.019 C 193.565 42.980,192.609 41.806,192.421 41.412 C 191.767 40.043,190.000 40.701,190.000 42.312 C 190.000 42.599,189.491 44.334,188.870 46.167 C 187.641 49.792,187.633 50.363,188.818 50.227 C 189.401 50.160,189.601 49.973,189.656 49.444 C 189.814 47.943,191.390 43.272,191.936 42.690 C 192.052 42.565,192.590 43.065,193.131 43.801 C 194.573 45.761,195.695 46.497,197.500 46.664 L 199.028 46.806 198.991 47.901 C 198.948 49.206,198.372 49.764,196.502 50.313 C 192.628 51.451,191.955 55.342,195.118 58.313 C 196.221 59.350,196.529 58.932,198.014 54.392 L 199.405 50.139 201.391 48.925 C 203.845 47.425,204.125 47.576,203.502 50.061 C 202.143 55.478,204.405 58.800,207.785 56.352 C 208.560 55.790,209.103 55.568,209.313 55.727 C 212.577 58.183,215.081 58.075,216.453 55.417 L 217.027 54.306 215.907 55.317 C 212.938 58.000,208.461 55.795,210.691 52.749 C 213.132 49.417,213.483 48.372,212.496 47.384 C 211.600 46.489,209.272 50.204,208.988 52.983 C 208.831 54.511,208.704 54.797,207.915 55.399 C 203.261 58.949,202.312 49.816,206.803 44.697 C 208.263 43.033,210.080 40.077,209.861 39.723 C 209.633 39.353,208.415 39.366,208.183 39.741 M230.732 40.051 C 230.454 40.207,230.046 40.728,229.826 41.209 C 229.606 41.690,229.063 42.754,228.619 43.573 C 227.461 45.709,226.111 49.813,226.111 51.195 C 226.111 52.937,224.380 55.242,222.270 56.310 C 220.194 57.361,219.549 56.918,219.270 54.247 L 219.094 52.563 220.822 49.719 C 223.963 44.549,224.509 41.944,222.452 41.944 C 221.660 41.944,219.504 46.972,218.877 50.278 C 218.689 51.271,218.302 52.341,218.017 52.657 C 217.405 53.336,217.358 53.775,217.877 53.974 C 218.085 54.054,218.341 54.660,218.447 55.320 C 218.919 58.274,221.141 58.607,223.932 56.142 C 225.492 54.763,225.752 54.737,226.241 55.908 C 227.346 58.553,229.590 58.643,232.282 56.150 L 233.954 54.603 234.781 55.635 C 236.797 58.148,239.802 56.285,242.288 50.982 C 243.214 49.006,242.166 46.944,240.237 46.944 C 239.319 46.944,239.692 47.705,240.833 48.162 C 242.705 48.911,241.894 51.681,238.940 54.631 C 235.958 57.606,234.327 54.798,236.809 50.964 C 238.277 48.696,238.863 47.085,238.392 46.614 C 237.870 46.093,237.379 46.755,236.241 49.516 C 234.047 54.836,229.040 58.573,227.497 56.042 C 226.587 54.549,226.766 53.268,228.160 51.300 C 229.295 49.696,230.278 48.004,230.278 47.653 C 230.278 47.139,229.730 47.704,228.929 49.043 C 228.019 50.564,227.453 50.846,227.265 49.873 C 227.169 49.378,228.488 45.114,228.901 44.583 C 229.020 44.431,229.205 43.837,229.312 43.264 C 229.419 42.691,229.596 42.222,229.707 42.222 C 229.817 42.222,230.303 41.730,230.787 41.127 C 231.679 40.017,231.654 39.535,230.732 40.051 M232.119 41.163 C 232.065 41.364,231.878 42.122,231.705 42.849 C 231.532 43.576,231.124 44.737,230.798 45.429 C 230.473 46.122,230.264 46.745,230.334 46.815 C 230.816 47.297,232.778 43.270,232.778 41.797 C 232.778 41.073,232.275 40.589,232.119 41.163 M222.726 43.965 C 222.812 44.413,221.297 48.157,220.756 48.831 C 219.735 50.104,220.491 46.162,221.720 43.803 C 222.023 43.220,222.599 43.313,222.726 43.965 M212.076 48.877 C 212.263 49.179,211.658 50.700,211.021 51.528 C 210.359 52.387,209.906 51.752,210.313 50.538 C 210.820 49.031,211.674 48.226,212.076 48.877 M197.935 51.141 C 198.039 51.310,197.987 51.904,197.818 52.460 C 197.649 53.017,197.274 54.281,196.985 55.269 C 196.184 58.009,195.410 58.157,194.185 55.806 C 193.152 53.825,193.730 52.368,195.950 51.360 C 197.268 50.762,197.673 50.717,197.935 51.141 M218.460 70.126 C 218.085 70.501,217.778 70.939,217.778 71.098 C 217.778 71.611,218.530 71.409,218.944 70.786 C 219.547 69.877,220.094 70.379,219.864 71.629 C 219.651 72.789,220.001 72.560,220.543 71.186 C 221.224 69.456,219.836 68.750,218.460 70.126 M208.595 70.617 C 207.547 71.765,207.511 72.934,208.556 71.889 C 209.153 71.292,209.507 72.033,209.296 73.439 C 208.979 75.550,205.047 82.663,204.336 82.411 C 203.562 82.136,205.327 76.299,206.717 74.539 C 206.875 74.339,206.860 74.147,206.678 74.035 C 206.517 73.935,206.298 74.080,206.192 74.357 C 206.086 74.634,205.702 75.299,205.338 75.833 C 203.725 78.205,202.260 82.974,202.658 84.559 C 202.750 84.927,202.683 85.303,202.507 85.413 C 202.153 85.631,203.781 87.219,205.103 87.945 C 206.403 88.658,208.762 87.950,210.802 86.234 C 211.875 85.331,212.347 85.598,212.613 87.262 C 213.114 90.395,215.447 91.086,218.574 89.027 C 220.389 87.831,220.421 87.831,221.583 89.028 C 222.612 90.088,223.989 90.322,225.404 89.678 C 226.577 89.143,226.226 88.821,224.699 89.031 C 223.237 89.232,221.667 88.339,221.667 87.307 C 221.667 85.590,227.503 80.547,228.194 81.667 C 228.289 81.819,228.601 81.944,228.889 81.944 C 230.028 81.944,229.616 83.477,227.720 86.290 C 226.758 87.719,226.743 87.974,227.657 87.374 C 228.515 86.812,229.088 87.145,229.220 88.282 C 229.460 90.358,230.178 89.171,230.064 86.886 C 229.970 84.984,230.070 84.209,230.640 82.431 C 231.363 80.174,231.265 79.762,230.308 81.042 L 229.737 81.806 229.015 80.903 C 227.301 78.759,223.350 80.835,221.357 84.927 C 220.264 87.170,217.593 89.167,215.684 89.167 C 212.782 89.167,212.466 84.036,215.216 81.577 C 215.864 80.998,216.549 79.512,216.289 79.252 C 216.193 79.156,215.866 79.302,215.563 79.577 C 214.891 80.184,214.483 79.577,214.962 78.682 C 215.117 78.392,215.520 77.351,215.857 76.369 C 216.194 75.387,216.639 74.337,216.846 74.035 C 217.284 73.398,217.345 72.500,216.950 72.500 C 216.486 72.500,215.521 74.684,214.004 79.167 C 211.819 85.620,207.796 88.925,204.899 86.647 C 203.790 85.774,204.556 82.795,206.250 81.389 C 207.178 80.619,209.799 74.646,210.087 72.646 C 210.523 69.619,210.070 69.003,208.595 70.617 M192.145 74.169 C 191.721 74.296,190.935 74.785,190.399 75.256 C 189.263 76.253,189.235 76.259,188.547 75.636 C 187.903 75.054,187.511 75.491,187.504 76.796 C 187.500 77.687,186.790 79.803,186.199 80.687 C 185.804 81.279,185.700 82.500,186.046 82.500 C 186.260 82.500,187.222 80.480,187.222 80.030 C 187.222 78.277,192.245 74.245,193.722 74.812 C 194.173 74.985,194.718 76.646,194.721 77.852 C 194.724 79.400,192.360 83.056,191.357 83.056 C 191.087 83.056,190.789 83.181,190.694 83.333 C 190.600 83.486,190.175 83.611,189.749 83.611 C 188.309 83.611,187.825 84.587,188.990 85.140 C 189.960 85.600,189.979 85.596,191.215 84.746 C 193.891 82.905,196.667 84.563,196.667 88.003 C 196.667 90.414,195.395 91.880,192.917 92.325 C 192.458 92.408,191.458 92.592,190.694 92.734 C 188.575 93.129,185.278 92.385,185.278 91.511 C 185.278 91.291,185.038 91.111,184.745 91.111 C 184.452 91.111,184.037 91.044,183.822 90.962 C 183.233 90.736,182.436 92.438,182.546 93.686 C 182.665 95.030,183.108 95.129,183.505 93.901 C 183.890 92.709,184.201 92.599,185.471 93.201 C 187.374 94.105,192.180 93.799,194.595 92.620 C 198.366 90.779,198.450 84.723,194.725 83.260 C 193.573 82.807,193.321 82.253,194.008 81.683 C 194.661 81.141,195.278 78.902,195.278 77.071 C 195.278 74.377,194.341 73.509,192.145 74.169 M397.778 98.056 C 397.778 98.208,397.965 98.333,398.194 98.333 C 398.424 98.333,398.611 98.208,398.611 98.056 C 398.611 97.903,398.424 97.778,398.194 97.778 C 397.965 97.778,397.778 97.903,397.778 98.056 M263.552 120.496 C 261.176 123.056,261.067 131.846,263.370 135.192 C 265.482 138.261,268.615 137.613,269.336 133.958 C 269.590 132.671,269.052 132.829,268.609 134.173 C 267.325 138.064,263.595 136.171,262.678 131.163 C 262.038 127.661,262.635 122.751,263.754 122.321 C 265.099 121.805,268.925 127.192,269.291 130.116 C 269.512 131.888,270.000 132.208,270.000 130.582 C 270.000 128.114,268.800 125.618,266.498 123.304 C 264.846 121.642,264.401 121.029,264.518 120.580 C 264.750 119.695,264.329 119.658,263.552 120.496 M171.389 122.627 C 171.389 122.696,171.695 123.204,172.069 123.755 C 173.411 125.732,173.419 128.744,172.083 128.760 C 170.864 128.775,170.556 129.076,170.556 130.251 C 170.556 131.856,171.935 132.821,172.778 131.806 C 173.180 131.320,174.200 131.256,174.633 131.688 C 174.798 131.853,175.282 131.947,175.709 131.897 C 176.674 131.783,176.978 131.112,176.065 131.110 C 174.614 131.108,173.586 130.114,173.780 128.902 C 174.149 126.594,172.853 122.500,171.753 122.500 C 171.553 122.500,171.389 122.557,171.389 122.627 M241.387 123.058 C 241.219 123.374,241.160 123.883,241.258 124.191 C 241.608 125.295,239.871 127.222,238.524 127.222 C 237.439 127.222,236.371 126.247,235.701 124.642 C 235.160 123.347,234.637 123.547,234.885 124.952 C 235.289 127.241,237.911 128.853,239.714 127.921 C 240.965 127.274,241.389 127.528,241.389 128.927 C 241.389 130.742,241.955 133.552,242.394 133.916 C 242.996 134.416,243.103 134.090,242.792 132.702 C 242.637 132.009,242.425 129.488,242.322 127.099 C 242.135 122.746,241.960 121.989,241.387 123.058 M170.091 124.053 C 169.894 124.564,170.688 126.389,171.107 126.389 C 171.470 126.389,171.473 125.918,171.111 125.694 C 170.958 125.600,170.833 125.093,170.833 124.567 C 170.833 123.580,170.390 123.274,170.091 124.053 M251.667 125.476 C 249.596 125.605,249.289 125.728,249.725 126.253 C 250.148 126.763,251.410 126.776,253.041 126.289 C 254.379 125.889,254.917 125.244,253.843 125.329 C 253.486 125.357,252.507 125.423,251.667 125.476 M198.122 125.878 C 197.582 126.418,197.713 126.637,198.542 126.580 C 199.580 126.509,199.819 128.694,198.913 129.967 C 198.251 130.896,198.382 131.111,199.609 131.111 C 201.343 131.111,202.548 133.781,201.467 135.229 C 200.448 136.594,197.036 137.061,195.859 135.996 C 195.260 135.454,194.722 135.427,194.722 135.938 C 194.722 137.755,200.843 137.826,202.025 136.023 C 203.132 134.332,202.862 132.862,201.125 131.125 L 200.005 130.005 200.310 128.581 C 200.747 126.545,199.274 124.726,198.122 125.878 M223.787 127.365 C 223.690 127.617,223.611 128.069,223.611 128.369 C 223.611 128.669,223.300 129.225,222.921 129.604 L 222.231 130.295 222.886 130.544 C 223.354 130.722,223.599 131.098,223.740 131.855 C 223.849 132.439,224.067 133.072,224.223 133.261 C 224.719 133.862,224.964 133.365,224.679 132.334 C 224.297 130.949,224.523 130.556,225.700 130.556 C 226.681 130.556,228.333 129.898,228.334 129.507 C 228.334 129.396,227.490 129.306,226.459 129.306 L 224.583 129.306 224.494 128.333 C 224.390 127.195,224.037 126.713,223.787 127.365 M185.703 129.491 C 185.632 129.694,185.538 130.416,185.495 131.095 C 185.422 132.249,185.354 132.345,184.444 132.578 C 182.394 133.104,182.368 133.743,184.395 133.747 L 185.694 133.750 185.841 135.000 C 186.154 137.682,186.936 137.629,186.861 134.931 L 186.806 132.917 187.856 132.778 C 189.321 132.584,189.276 132.111,187.778 131.944 L 186.528 131.806 186.506 130.572 C 186.486 129.393,185.978 128.710,185.703 129.491 M172.361 130.556 C 172.361 131.347,171.484 131.683,171.219 130.993 C 170.967 130.334,171.324 129.669,171.874 129.775 C 172.182 129.834,172.361 130.122,172.361 130.556 M211.513 130.689 C 210.717 131.733,210.005 131.926,209.444 131.250 C 209.090 130.823,208.056 130.668,208.056 131.042 C 208.056 131.156,208.506 131.628,209.056 132.090 L 210.056 132.929 209.164 135.240 C 208.531 136.883,208.359 137.637,208.571 137.849 C 208.782 138.060,208.955 137.912,209.167 137.337 C 210.579 133.510,210.594 133.498,212.328 134.821 C 213.684 135.857,214.646 136.280,214.951 135.975 C 215.129 135.796,214.381 135.086,212.513 133.659 C 211.518 132.900,211.480 132.567,212.220 131.115 C 212.939 129.706,212.476 129.427,211.513 130.689 M250.300 130.026 C 249.805 130.224,249.710 130.377,249.938 130.605 C 250.345 131.012,253.662 130.555,253.821 130.069 C 253.960 129.646,251.333 129.613,250.300 130.026 M164.116 131.804 C 162.995 133.777,163.157 134.598,164.308 132.775 C 164.942 131.770,165.556 130.465,165.556 130.121 C 165.556 129.612,164.979 130.286,164.116 131.804 M136.181 130.633 C 135.338 131.018,135.367 131.139,136.813 133.279 C 140.669 138.981,142.532 141.296,143.024 140.992 C 143.468 140.718,143.105 139.438,142.349 138.611 C 142.000 138.229,141.672 137.604,141.621 137.222 C 141.559 136.764,141.374 136.553,141.076 136.601 C 140.255 136.735,139.582 135.338,140.160 134.699 C 140.701 134.101,140.710 134.118,138.620 131.853 C 137.362 130.489,136.948 130.282,136.181 130.633 M158.611 132.024 C 158.611 132.221,159.236 132.998,160.000 133.750 C 161.720 135.444,161.719 135.484,159.907 137.892 C 158.054 140.356,157.689 141.035,157.911 141.613 C 158.101 142.108,159.968 140.230,159.990 139.522 C 160.009 138.890,161.770 136.667,162.251 136.667 C 162.520 136.667,163.273 137.427,163.970 138.403 C 165.642 140.740,166.316 141.347,166.553 140.728 C 166.650 140.476,166.559 140.038,166.351 139.754 C 164.941 137.831,163.628 136.193,163.237 135.868 C 162.984 135.659,162.778 135.253,162.778 134.966 C 162.778 134.679,162.617 134.444,162.420 134.444 C 162.223 134.444,161.447 133.819,160.694 133.056 C 159.347 131.687,158.611 131.323,158.611 132.024 M176.506 155.651 C 176.418 155.880,176.489 156.334,176.663 156.659 C 177.327 157.900,177.240 164.760,176.492 170.214 C 176.261 171.901,176.582 173.265,177.325 173.752 C 178.267 174.369,182.742 175.147,183.128 174.761 C 183.623 174.266,183.304 174.164,178.976 173.427 C 177.161 173.118,177.101 172.861,177.490 167.018 C 177.680 164.151,177.792 160.556,177.738 159.028 C 177.627 155.922,177.428 156.162,179.792 156.555 C 181.234 156.794,181.124 156.258,179.653 155.880 C 177.203 155.251,176.674 155.212,176.506 155.651 M202.102 155.525 C 201.937 155.793,202.149 155.992,203.168 156.528 C 204.317 157.132,204.764 158.168,204.916 160.584 C 204.997 161.867,205.312 163.854,205.618 165.000 C 205.923 166.146,206.339 167.708,206.542 168.472 C 206.745 169.236,207.259 170.819,207.684 171.990 C 208.846 175.189,207.940 176.796,205.002 176.752 C 203.477 176.729,203.189 177.075,204.361 177.521 C 207.914 178.872,210.171 175.160,208.342 170.972 C 207.251 168.474,206.139 164.035,205.836 160.972 C 205.552 158.104,205.100 156.852,204.069 156.082 C 203.248 155.468,202.303 155.201,202.102 155.525 M187.222 157.611 C 187.222 157.826,187.629 158.241,188.126 158.534 C 189.717 159.473,192.590 163.738,192.381 164.851 C 192.272 165.436,192.363 166.127,192.626 166.710 C 192.857 167.221,193.359 169.071,193.743 170.821 C 194.455 174.072,194.985 175.127,195.597 174.514 C 195.818 174.293,195.832 174.076,195.641 173.831 C 195.487 173.634,195.018 172.160,194.599 170.556 C 194.181 168.951,193.723 167.272,193.582 166.823 C 193.237 165.724,193.683 165.283,194.444 165.972 C 195.424 166.858,195.763 166.068,194.893 164.928 C 193.779 163.467,194.223 161.842,196.377 159.497 C 197.330 158.459,197.380 158.333,196.839 158.333 C 196.396 158.333,194.741 160.278,194.062 161.597 C 193.421 162.841,192.968 162.735,191.689 161.042 C 189.537 158.195,187.222 156.416,187.222 157.611 M159.752 158.264 C 158.125 159.104,157.633 160.486,157.238 165.334 C 156.832 170.311,156.914 170.160,154.520 170.352 C 152.728 170.496,150.939 171.587,151.529 172.177 C 151.621 172.269,151.784 172.211,151.890 172.047 C 152.509 171.094,155.967 170.689,156.290 171.533 C 156.513 172.113,155.891 173.591,155.031 174.526 C 154.029 175.615,153.073 175.459,152.408 174.097 C 151.807 172.868,151.386 172.752,151.395 173.819 C 151.408 175.467,153.145 176.677,154.536 176.007 C 155.581 175.503,156.944 173.861,156.944 173.104 C 156.944 171.643,158.651 171.822,161.250 173.555 C 162.893 174.651,166.004 174.353,166.827 173.020 C 167.026 172.700,166.964 172.704,164.372 173.205 C 163.500 173.374,162.998 173.246,161.317 172.431 C 160.211 171.894,158.944 171.310,158.501 171.132 L 157.697 170.809 157.883 168.251 C 157.985 166.845,158.148 164.519,158.244 163.082 C 158.433 160.281,159.608 158.333,161.111 158.333 C 161.417 158.333,161.667 158.208,161.667 158.056 C 161.667 157.630,160.799 157.725,159.752 158.264 M341.944 158.611 C 341.944 158.764,342.382 158.889,342.917 158.889 C 343.451 158.889,343.889 158.764,343.889 158.611 C 343.889 158.458,343.451 158.333,342.917 158.333 C 342.382 158.333,341.944 158.458,341.944 158.611 M186.670 183.899 C 186.672 184.123,186.922 185.098,187.226 186.068 C 187.530 187.037,187.717 187.929,187.642 188.050 C 187.567 188.171,187.692 188.425,187.920 188.614 C 188.571 189.154,188.457 189.438,186.306 192.659 C 184.121 195.931,183.786 196.570,184.145 196.792 C 184.348 196.918,185.833 194.977,185.833 194.586 C 185.833 194.099,188.245 191.025,188.789 190.818 C 189.243 190.646,189.444 190.350,189.444 189.856 C 189.444 189.464,189.828 188.324,190.296 187.322 C 191.323 185.125,191.203 184.779,190.013 186.508 C 188.783 188.297,188.440 188.169,187.819 185.694 C 187.467 184.294,186.663 183.036,186.670 183.899 M205.102 186.469 C 202.160 188.882,198.315 192.897,198.395 193.472 C 198.516 194.344,199.547 194.192,199.719 193.278 C 199.811 192.791,200.650 191.814,202.104 190.500 C 203.337 189.385,204.756 188.003,205.257 187.431 C 206.257 186.288,207.154 186.095,207.843 186.875 C 208.401 187.507,210.398 191.508,210.822 192.843 C 211.194 194.015,211.577 194.367,212.009 193.935 C 212.377 193.567,210.974 190.006,209.740 188.178 C 209.272 187.484,208.889 186.698,208.889 186.431 C 208.889 184.880,207.016 184.899,205.102 186.469 M206.667 189.558 C 206.667 191.508,206.997 194.446,208.466 205.556 C 209.608 214.190,210.137 222.537,209.937 228.750 C 209.843 231.700,209.922 234.175,210.174 236.111 C 210.740 240.470,211.000 248.493,210.590 248.986 C 210.408 249.205,209.683 249.471,208.978 249.576 C 208.272 249.682,206.433 250.124,204.889 250.558 C 203.346 250.991,200.708 251.488,199.028 251.660 C 197.347 251.832,194.847 252.156,193.472 252.378 C 192.097 252.601,189.271 253.028,187.192 253.328 C 185.113 253.628,183.073 254.002,182.660 254.159 C 182.246 254.316,181.448 254.447,180.885 254.450 C 180.322 254.452,178.830 254.637,177.571 254.860 C 176.052 255.128,175.053 255.179,174.606 255.009 C 174.107 254.819,173.843 254.860,173.589 255.166 C 173.133 255.715,173.515 256.050,174.722 256.161 C 175.257 256.210,175.694 256.375,175.694 256.528 C 175.694 256.924,173.807 257.197,169.028 257.495 C 163.599 257.834,162.083 258.077,162.083 258.611 C 162.083 259.063,170.184 259.265,170.459 258.821 C 170.530 258.705,171.362 258.606,172.308 258.599 C 173.254 258.592,174.590 258.455,175.278 258.294 C 175.965 258.133,179.215 257.905,182.500 257.788 C 185.785 257.671,188.785 257.439,189.167 257.273 C 189.968 256.925,203.287 256.109,208.132 256.110 C 211.950 256.111,211.740 255.927,212.075 259.583 C 212.187 260.806,212.445 262.681,212.648 263.750 C 212.851 264.819,213.097 266.819,213.195 268.194 C 213.293 269.569,213.609 272.382,213.897 274.444 C 214.184 276.507,214.394 278.444,214.363 278.750 C 214.328 279.084,214.472 279.306,214.722 279.306 C 215.351 279.306,215.386 278.088,214.884 273.611 C 214.636 271.396,214.320 268.458,214.181 267.083 C 214.043 265.708,213.801 264.021,213.644 263.333 C 213.487 262.646,213.273 260.769,213.169 259.163 C 212.943 255.673,212.923 255.701,215.833 255.451 C 216.979 255.353,219.042 255.150,220.417 255.000 C 223.570 254.658,259.486 253.526,277.917 253.188 C 282.958 253.096,288.083 252.962,289.306 252.892 C 290.528 252.821,294.403 252.660,297.917 252.535 C 301.431 252.410,304.523 252.212,304.789 252.097 C 305.125 251.951,305.330 252.035,305.459 252.372 C 305.702 253.005,304.791 253.688,303.975 253.484 C 303.641 253.400,303.281 253.471,303.175 253.643 C 303.053 253.840,302.537 253.893,301.769 253.788 C 300.473 253.610,300.031 254.152,301.042 254.678 C 304.817 256.643,308.333 253.140,305.437 250.298 C 304.761 249.635,304.141 248.823,304.058 248.494 C 303.751 247.270,300.122 245.795,299.579 246.673 C 299.371 247.011,301.232 248.746,302.400 249.304 C 303.301 249.733,303.794 250.490,303.412 250.858 C 303.292 250.973,300.319 251.144,296.806 251.238 C 293.292 251.331,288.667 251.520,286.528 251.657 C 284.389 251.795,277.264 251.919,270.694 251.933 C 263.771 251.948,255.772 252.134,251.667 252.376 C 247.771 252.604,241.602 252.793,237.959 252.795 C 234.316 252.797,230.424 252.914,229.312 253.055 C 228.199 253.196,225.930 253.381,224.269 253.465 C 222.609 253.550,219.673 253.815,217.745 254.054 C 212.639 254.687,212.682 254.700,212.440 252.506 C 212.178 250.126,212.428 249.804,215.456 248.626 C 219.762 246.950,228.053 242.999,230.473 241.469 C 231.268 240.967,232.034 240.556,232.175 240.556 C 232.316 240.556,232.604 240.326,232.813 240.046 C 233.023 239.766,234.675 238.555,236.484 237.356 C 240.005 235.022,246.194 229.486,246.985 227.963 C 247.237 227.479,247.705 226.845,248.027 226.554 C 248.348 226.263,248.616 225.888,248.622 225.721 C 248.628 225.554,249.691 224.104,250.985 222.500 C 255.662 216.700,259.215 210.302,260.095 206.095 C 260.365 204.805,260.758 203.188,260.968 202.500 C 261.179 201.813,261.429 200.563,261.524 199.722 C 261.802 197.273,262.226 195.242,262.774 193.734 C 263.473 191.815,263.949 189.115,263.643 188.810 C 263.297 188.463,263.094 188.882,262.776 190.604 C 262.625 191.417,262.386 192.333,262.243 192.639 C 261.595 194.031,260.833 196.977,260.663 198.750 C 260.560 199.819,260.239 201.444,259.949 202.361 C 259.660 203.278,259.246 205.046,259.028 206.291 C 258.811 207.535,258.361 209.035,258.028 209.624 C 257.694 210.213,256.669 212.132,255.749 213.889 C 253.734 217.738,252.267 219.994,250.695 221.667 C 249.477 222.961,247.187 225.907,246.266 227.361 C 245.210 229.031,239.749 233.992,236.806 235.958 C 235.736 236.672,234.236 237.694,233.472 238.229 C 232.708 238.764,231.085 239.788,229.864 240.504 C 228.644 241.220,227.394 241.958,227.086 242.145 C 226.779 242.332,226.090 242.679,225.556 242.916 C 225.021 243.153,224.366 243.469,224.101 243.618 C 223.836 243.767,223.382 243.889,223.093 243.889 C 222.804 243.889,222.406 244.085,222.207 244.324 C 221.664 244.978,218.977 246.215,214.028 248.090 C 211.964 248.871,211.945 248.843,211.942 244.939 C 211.941 243.063,211.750 240.028,211.518 238.194 C 211.268 236.224,211.048 231.682,210.981 227.083 C 210.834 216.995,209.558 202.457,208.482 198.611 C 208.293 197.933,207.691 190.788,207.723 189.597 C 207.752 188.535,207.414 187.778,206.910 187.778 C 206.776 187.778,206.667 188.579,206.667 189.558 M211.145 251.132 C 211.435 252.169,211.421 254.392,211.123 254.576 C 210.976 254.667,209.445 254.791,207.720 254.853 C 205.995 254.916,202.708 255.042,200.417 255.136 C 198.125 255.229,195.125 255.350,193.750 255.406 C 192.375 255.462,190.188 255.729,188.889 256.001 C 186.230 256.558,178.068 256.745,178.054 256.250 C 178.050 256.097,178.955 255.910,180.065 255.833 C 181.175 255.757,182.480 255.490,182.965 255.240 C 183.450 254.990,184.950 254.636,186.298 254.452 C 187.647 254.268,189.688 253.935,190.833 253.712 C 191.979 253.489,194.690 253.186,196.858 253.038 C 199.443 252.862,201.595 252.544,203.108 252.115 C 209.970 250.168,210.846 250.061,211.145 251.132 M313.176 265.266 C 311.951 266.971,311.921 266.973,310.804 265.417 C 309.808 264.030,309.314 263.853,309.066 264.792 C 308.956 265.209,309.069 265.555,309.406 265.833 C 311.148 267.272,311.367 268.297,310.417 270.556 C 309.621 272.447,309.574 272.778,310.102 272.778 C 310.311 272.778,310.741 272.153,311.059 271.389 C 311.846 269.495,312.425 269.540,313.762 271.597 C 315.226 273.850,316.111 274.492,316.111 273.302 C 316.111 272.979,315.793 272.323,315.404 271.844 C 312.500 268.262,312.514 268.305,313.750 266.428 C 315.347 264.003,314.832 262.962,313.176 265.266 " stroke="none" fill="#fcfcfc" fill-rule="evenodd"></path><path id="path1" d="M0.000 150.000 L 0.000 300.000 199.999 300.000 L 399.998 300.000 399.999 150.000 L 400.000 0.000 200.000 0.000 L 0.000 0.000 0.000 150.000 M70.577 23.862 C 70.107 24.456,69.722 25.204,69.722 25.526 C 69.722 26.259,69.397 26.271,68.755 25.561 C 68.217 24.967,68.547 24.167,69.330 24.167 C 69.535 24.167,69.848 23.885,70.026 23.542 C 70.204 23.198,70.552 22.684,70.800 22.400 C 71.687 21.382,71.483 22.718,70.577 23.862 M63.909 23.403 C 63.934 24.523,64.696 25.883,65.503 26.246 C 66.213 26.566,66.283 26.896,65.691 27.123 C 65.176 27.321,64.469 26.768,64.145 25.914 C 63.670 24.666,63.310 24.986,61.290 28.452 C 60.495 29.816,59.692 30.982,59.506 31.044 C 58.607 31.344,58.968 30.105,60.515 27.586 C 61.435 26.087,62.280 24.611,62.393 24.306 C 63.054 22.509,63.878 22.018,63.909 23.403 M94.953 23.439 C 95.083 24.110,94.460 24.765,93.870 24.577 C 93.562 24.480,93.270 24.607,93.097 24.916 C 92.944 25.189,92.734 25.327,92.630 25.223 C 92.382 24.974,94.222 22.762,94.583 22.876 C 94.736 22.924,94.903 23.177,94.953 23.439 M77.222 23.786 C 77.222 24.574,75.619 27.053,74.580 27.872 C 74.029 28.306,73.461 28.931,73.318 29.261 C 73.174 29.591,72.944 30.049,72.807 30.278 C 69.862 35.177,69.931 38.546,72.944 37.048 C 73.519 36.762,74.074 36.340,74.176 36.111 C 75.453 33.264,76.254 31.944,76.708 31.944 C 76.863 31.944,76.745 32.351,76.445 32.847 C 75.733 34.029,75.484 36.262,76.016 36.703 C 77.230 37.710,81.210 34.939,81.520 32.870 C 81.727 31.489,82.981 29.016,83.893 28.190 C 84.710 27.452,84.599 28.217,83.724 29.365 C 83.225 30.019,83.053 30.509,83.166 30.959 C 83.271 31.375,83.193 31.661,82.949 31.755 C 82.718 31.843,82.619 32.162,82.696 32.564 C 82.771 32.962,82.646 33.375,82.383 33.593 C 81.198 34.576,82.062 36.667,83.655 36.667 C 84.633 36.667,84.742 36.725,84.444 37.083 C 83.844 37.807,82.531 37.592,81.624 36.621 L 80.803 35.742 79.029 36.625 C 76.862 37.703,75.700 37.965,75.142 37.503 C 74.806 37.224,74.481 37.275,73.430 37.768 C 69.901 39.427,68.631 36.929,70.837 32.667 C 72.141 30.145,71.860 29.270,70.066 30.268 C 69.800 30.416,68.921 30.809,68.112 31.141 C 66.965 31.613,66.555 31.952,66.251 32.679 C 65.796 33.769,65.278 33.904,65.278 32.933 C 65.278 31.777,64.689 31.779,63.695 32.940 C 62.867 33.907,62.794 33.943,63.041 33.266 C 63.607 31.711,64.167 31.146,65.229 31.057 C 66.052 30.989,66.329 30.807,66.666 30.116 C 67.287 28.843,68.262 27.614,68.479 27.830 C 68.583 27.935,68.467 28.427,68.219 28.923 C 66.749 31.870,72.916 28.841,75.225 25.481 C 76.682 23.361,77.222 22.902,77.222 23.786 M87.939 25.148 C 87.803 25.690,87.616 25.856,87.249 25.760 C 86.972 25.687,86.540 25.743,86.289 25.883 C 85.562 26.291,85.759 25.797,86.722 24.804 C 87.705 23.790,88.242 23.942,87.939 25.148 M91.389 27.372 C 91.389 27.455,90.907 28.424,90.317 29.525 C 89.728 30.627,89.303 31.691,89.373 31.891 C 89.444 32.091,89.314 32.466,89.084 32.724 C 86.720 35.389,87.185 38.049,89.948 37.670 C 91.328 37.481,92.500 36.611,92.500 35.776 C 92.500 35.078,93.246 33.333,93.545 33.333 C 93.677 33.333,93.731 34.082,93.665 34.996 C 93.529 36.883,93.898 37.283,95.221 36.680 C 95.956 36.345,95.958 36.346,95.444 36.914 C 94.748 37.683,94.034 37.875,93.310 37.487 C 92.810 37.220,92.456 37.294,91.195 37.932 C 89.117 38.984,88.051 38.724,86.733 36.845 L 85.787 35.496 86.465 34.762 C 86.839 34.358,87.608 33.036,88.174 31.825 C 89.524 28.939,91.389 26.355,91.389 27.372 M85.833 28.746 C 85.833 29.260,84.186 31.109,84.175 30.606 C 84.167 30.268,85.489 28.333,85.727 28.333 C 85.786 28.333,85.833 28.519,85.833 28.746 M97.757 29.808 C 99.272 30.558,99.601 31.184,98.348 30.934 C 97.730 30.810,97.331 30.900,96.942 31.252 C 96.518 31.636,96.314 31.672,96.007 31.418 C 95.694 31.158,95.499 31.248,95.039 31.866 C 94.132 33.081,94.344 32.011,95.307 30.510 C 96.295 28.970,96.149 29.012,97.757 29.808 M79.267 30.494 C 79.246 30.963,79.027 31.633,78.781 31.985 L 78.333 32.624 78.333 32.020 C 78.333 31.688,78.115 31.295,77.849 31.145 C 77.403 30.896,77.418 30.818,78.041 30.154 C 78.881 29.260,79.317 29.382,79.267 30.494 M64.118 36.576 C 62.567 38.730,61.389 38.960,61.389 37.108 C 61.389 35.904,61.857 35.566,62.216 36.511 C 62.642 37.631,63.618 36.898,64.499 34.796 C 64.811 34.052,64.825 34.047,64.931 34.661 C 65.001 35.063,64.705 35.760,64.118 36.576 M209.861 39.723 C 210.080 40.077,208.263 43.033,206.803 44.697 C 202.312 49.816,203.261 58.949,207.915 55.399 C 208.704 54.797,208.831 54.511,208.988 52.983 C 209.272 50.204,211.600 46.489,212.496 47.384 C 213.483 48.372,213.132 49.417,210.691 52.749 C 209.834 53.920,209.814 54.734,210.625 55.472 C 212.319 57.015,214.085 56.963,215.907 55.317 L 217.027 54.306 216.453 55.417 C 215.081 58.075,212.577 58.183,209.313 55.727 C 209.103 55.568,208.560 55.790,207.785 56.352 C 204.405 58.800,202.143 55.478,203.502 50.061 C 204.125 47.576,203.845 47.425,201.391 48.925 L 199.405 50.139 198.014 54.392 C 196.529 58.932,196.221 59.350,195.118 58.313 C 191.955 55.342,192.628 51.451,196.502 50.313 C 198.372 49.764,198.948 49.206,198.991 47.901 L 199.028 46.806 197.500 46.664 C 195.695 46.497,194.573 45.761,193.131 43.801 C 192.590 43.065,192.052 42.565,191.936 42.690 C 191.390 43.272,189.814 47.943,189.656 49.444 C 189.601 49.973,189.401 50.160,188.818 50.227 C 187.633 50.363,187.641 49.792,188.870 46.167 C 189.491 44.334,190.000 42.599,190.000 42.312 C 190.000 40.701,191.767 40.043,192.421 41.412 C 192.609 41.806,193.565 42.980,194.546 44.019 L 196.328 45.910 197.750 45.773 C 199.790 45.577,200.024 45.314,201.843 41.184 C 202.393 39.933,202.914 39.671,203.180 40.511 C 203.366 41.095,202.803 42.590,202.014 43.611 C 199.727 46.572,199.206 50.008,201.357 47.947 C 201.773 47.548,202.246 47.222,202.407 47.222 C 203.105 47.222,205.206 44.937,206.078 43.228 C 207.046 41.331,207.190 41.190,207.673 41.673 C 207.867 41.867,208.127 41.771,208.489 41.370 C 209.004 40.802,209.004 40.771,208.510 40.410 C 208.230 40.205,208.082 39.904,208.183 39.741 C 208.415 39.366,209.633 39.353,209.861 39.723 M230.787 41.127 C 230.303 41.730,229.817 42.222,229.707 42.222 C 229.596 42.222,229.419 42.691,229.312 43.264 C 229.205 43.837,229.020 44.431,228.901 44.583 C 228.488 45.114,227.169 49.378,227.265 49.873 C 227.453 50.846,228.019 50.564,228.929 49.043 C 229.730 47.704,230.278 47.139,230.278 47.653 C 230.278 48.004,229.295 49.696,228.160 51.300 C 226.766 53.268,226.587 54.549,227.497 56.042 C 229.040 58.573,234.047 54.836,236.241 49.516 C 237.379 46.755,237.870 46.093,238.392 46.614 C 238.863 47.085,238.277 48.696,236.809 50.964 C 234.327 54.798,235.958 57.606,238.940 54.631 C 241.894 51.681,242.705 48.911,240.833 48.162 C 239.692 47.705,239.319 46.944,240.237 46.944 C 242.166 46.944,243.214 49.006,242.288 50.982 C 239.802 56.285,236.797 58.148,234.781 55.635 L 233.954 54.603 232.282 56.150 C 229.590 58.643,227.346 58.553,226.241 55.908 C 225.752 54.737,225.492 54.763,223.932 56.142 C 221.141 58.607,218.919 58.274,218.447 55.320 C 218.341 54.660,218.085 54.054,217.877 53.974 C 217.358 53.775,217.405 53.336,218.017 52.657 C 218.302 52.341,218.689 51.271,218.877 50.278 C 219.504 46.972,221.660 41.944,222.452 41.944 C 224.509 41.944,223.963 44.549,220.822 49.719 L 219.094 52.563 219.270 54.247 C 219.549 56.918,220.194 57.361,222.270 56.310 C 224.380 55.242,226.111 52.937,226.111 51.195 C 226.111 49.813,227.461 45.709,228.619 43.573 C 229.063 42.754,229.606 41.690,229.826 41.209 C 230.230 40.324,231.059 39.657,231.452 39.900 C 231.570 39.973,231.271 40.525,230.787 41.127 M232.778 41.797 C 232.778 43.270,230.816 47.297,230.334 46.815 C 230.264 46.745,230.473 46.122,230.798 45.429 C 231.124 44.737,231.532 43.576,231.705 42.849 C 231.878 42.122,232.065 41.364,232.119 41.163 C 232.275 40.589,232.778 41.073,232.778 41.797 M221.720 43.803 C 220.491 46.162,219.735 50.104,220.756 48.831 C 221.297 48.157,222.812 44.413,222.726 43.965 C 222.599 43.313,222.023 43.220,221.720 43.803 M211.055 49.097 C 210.384 49.873,209.940 51.441,210.293 51.788 C 210.644 52.134,211.227 51.483,211.844 50.057 C 212.418 48.730,211.908 48.110,211.055 49.097 M195.950 51.360 C 193.730 52.368,193.152 53.825,194.185 55.806 C 195.410 58.157,196.184 58.009,196.985 55.269 C 197.274 54.281,197.649 53.017,197.818 52.460 C 198.329 50.776,197.853 50.496,195.950 51.360 M220.735 69.866 C 220.899 70.295,220.398 71.855,219.934 72.361 C 219.778 72.531,219.751 72.247,219.864 71.629 C 220.094 70.379,219.547 69.877,218.944 70.786 C 218.530 71.409,217.778 71.611,217.778 71.098 C 217.778 69.998,220.371 68.917,220.735 69.866 M210.196 70.187 C 210.796 71.750,207.876 80.039,206.250 81.389 C 204.556 82.795,203.790 85.774,204.899 86.647 C 207.796 88.925,211.819 85.620,214.004 79.167 C 215.521 74.684,216.486 72.500,216.950 72.500 C 217.345 72.500,217.284 73.398,216.846 74.035 C 216.639 74.337,216.194 75.387,215.857 76.369 C 215.520 77.351,215.117 78.392,214.962 78.682 C 214.483 79.577,214.891 80.184,215.563 79.577 C 215.866 79.302,216.193 79.156,216.289 79.252 C 216.549 79.512,215.864 80.998,215.216 81.577 C 212.466 84.036,212.782 89.167,215.684 89.167 C 217.593 89.167,220.264 87.170,221.357 84.927 C 223.350 80.835,227.301 78.759,229.015 80.903 L 229.737 81.806 230.308 81.042 C 231.265 79.762,231.363 80.174,230.640 82.431 C 230.070 84.209,229.970 84.984,230.064 86.886 C 230.178 89.171,229.460 90.358,229.220 88.282 C 229.088 87.145,228.515 86.812,227.657 87.374 C 226.743 87.974,226.758 87.719,227.720 86.290 C 229.616 83.477,230.028 81.944,228.889 81.944 C 228.601 81.944,228.289 81.819,228.194 81.667 C 227.503 80.547,221.667 85.590,221.667 87.307 C 221.667 88.339,223.237 89.232,224.699 89.031 C 226.226 88.821,226.577 89.143,225.404 89.678 C 223.989 90.322,222.612 90.088,221.583 89.028 C 220.421 87.831,220.389 87.831,218.574 89.027 C 215.447 91.086,213.114 90.395,212.613 87.262 C 212.347 85.598,211.875 85.331,210.802 86.234 C 208.762 87.950,206.403 88.658,205.103 87.945 C 203.781 87.219,202.153 85.631,202.507 85.413 C 202.683 85.303,202.750 84.927,202.658 84.559 C 202.260 82.974,203.725 78.205,205.338 75.833 C 205.702 75.299,206.086 74.634,206.192 74.357 C 206.298 74.080,206.517 73.935,206.678 74.035 C 206.860 74.147,206.875 74.339,206.717 74.539 C 205.327 76.299,203.562 82.136,204.336 82.411 C 205.047 82.663,208.979 75.550,209.296 73.439 C 209.507 72.033,209.153 71.292,208.556 71.889 C 207.511 72.934,207.547 71.765,208.595 70.617 C 209.511 69.615,209.933 69.502,210.196 70.187 M194.702 74.621 C 195.724 75.920,195.259 80.645,194.008 81.683 C 193.321 82.253,193.573 82.807,194.725 83.260 C 198.450 84.723,198.366 90.779,194.595 92.620 C 192.180 93.799,187.374 94.105,185.471 93.201 C 184.201 92.599,183.890 92.709,183.505 93.901 C 183.108 95.129,182.665 95.030,182.546 93.686 C 182.436 92.438,183.233 90.736,183.822 90.962 C 184.037 91.044,184.452 91.111,184.745 91.111 C 185.038 91.111,185.278 91.291,185.278 91.511 C 185.278 92.385,188.575 93.129,190.694 92.734 C 191.458 92.592,192.458 92.408,192.917 92.325 C 195.395 91.880,196.667 90.414,196.667 88.003 C 196.667 84.563,193.891 82.905,191.215 84.746 C 189.979 85.596,189.960 85.600,188.990 85.140 C 187.825 84.587,188.309 83.611,189.749 83.611 C 190.175 83.611,190.600 83.486,190.694 83.333 C 190.789 83.181,191.087 83.056,191.357 83.056 C 192.360 83.056,194.724 79.400,194.721 77.852 C 194.718 76.646,194.173 74.985,193.722 74.812 C 192.245 74.245,187.222 78.277,187.222 80.030 C 187.222 80.480,186.260 82.500,186.046 82.500 C 185.700 82.500,185.804 81.279,186.199 80.687 C 186.790 79.803,187.500 77.687,187.504 76.796 C 187.511 75.491,187.903 75.054,188.547 75.636 C 189.235 76.259,189.263 76.253,190.399 75.256 C 192.091 73.771,193.831 73.514,194.702 74.621 M398.611 98.056 C 398.611 98.208,398.424 98.333,398.194 98.333 C 397.965 98.333,397.778 98.208,397.778 98.056 C 397.778 97.903,397.965 97.778,398.194 97.778 C 398.424 97.778,398.611 97.903,398.611 98.056 M264.518 120.580 C 264.401 121.029,264.846 121.642,266.498 123.304 C 268.800 125.618,270.000 128.114,270.000 130.582 C 270.000 132.208,269.512 131.888,269.291 130.116 C 268.925 127.192,265.099 121.805,263.754 122.321 C 262.635 122.751,262.038 127.661,262.678 131.163 C 263.595 136.171,267.325 138.064,268.609 134.173 C 269.052 132.829,269.590 132.671,269.336 133.958 C 268.615 137.613,265.482 138.261,263.370 135.192 C 261.067 131.846,261.176 123.056,263.552 120.496 C 264.329 119.658,264.750 119.695,264.518 120.580 M172.682 123.264 C 173.387 124.219,174.014 127.440,173.780 128.902 C 173.586 130.114,174.614 131.108,176.065 131.110 C 176.978 131.112,176.674 131.783,175.709 131.897 C 175.282 131.947,174.798 131.853,174.633 131.688 C 174.200 131.256,173.180 131.320,172.778 131.806 C 171.935 132.821,170.556 131.856,170.556 130.251 C 170.556 129.076,170.864 128.775,172.083 128.760 C 173.419 128.744,173.411 125.732,172.069 123.755 C 171.057 122.263,171.613 121.817,172.682 123.264 M242.322 127.099 C 242.425 129.488,242.637 132.009,242.792 132.702 C 243.103 134.090,242.996 134.416,242.394 133.916 C 241.955 133.552,241.389 130.742,241.389 128.927 C 241.389 127.528,240.965 127.274,239.714 127.921 C 237.911 128.853,235.289 127.241,234.885 124.952 C 234.637 123.547,235.160 123.347,235.701 124.642 C 236.371 126.247,237.439 127.222,238.524 127.222 C 239.871 127.222,241.608 125.295,241.258 124.191 C 241.064 123.582,241.559 122.401,241.915 122.621 C 242.036 122.695,242.219 124.711,242.322 127.099 M170.833 124.567 C 170.833 125.093,170.958 125.600,171.111 125.694 C 171.473 125.918,171.470 126.389,171.107 126.389 C 170.688 126.389,169.894 124.564,170.091 124.053 C 170.390 123.274,170.833 123.580,170.833 124.567 M254.384 125.599 C 254.106 126.433,250.316 126.965,249.725 126.253 C 249.289 125.728,249.596 125.605,251.667 125.476 C 252.507 125.423,253.486 125.357,253.843 125.329 C 254.226 125.299,254.447 125.409,254.384 125.599 M200.072 126.426 C 200.555 127.076,200.582 127.315,200.310 128.581 L 200.005 130.005 201.125 131.125 C 202.862 132.862,203.132 134.332,202.025 136.023 C 200.843 137.826,194.722 137.755,194.722 135.938 C 194.722 135.427,195.260 135.454,195.859 135.996 C 197.036 137.061,200.448 136.594,201.467 135.229 C 202.548 133.781,201.343 131.111,199.609 131.111 C 198.382 131.111,198.251 130.896,198.913 129.967 C 199.819 128.694,199.580 126.509,198.542 126.580 C 197.713 126.637,197.582 126.418,198.122 125.878 C 198.632 125.368,199.457 125.599,200.072 126.426 M224.494 128.333 L 224.583 129.306 226.459 129.306 C 227.490 129.306,228.334 129.396,228.334 129.507 C 228.333 129.898,226.681 130.556,225.700 130.556 C 224.523 130.556,224.297 130.949,224.679 132.334 C 224.964 133.365,224.719 133.862,224.223 133.261 C 224.067 133.072,223.849 132.439,223.740 131.855 C 223.599 131.098,223.354 130.722,222.886 130.544 L 222.231 130.295 222.921 129.604 C 223.300 129.225,223.611 128.669,223.611 128.369 C 223.611 126.719,224.343 126.690,224.494 128.333 M186.506 130.572 L 186.528 131.806 187.778 131.944 C 189.276 132.111,189.321 132.584,187.856 132.778 L 186.806 132.917 186.861 134.931 C 186.936 137.629,186.154 137.682,185.841 135.000 L 185.694 133.750 184.395 133.747 C 182.368 133.743,182.394 133.104,184.444 132.578 C 185.354 132.345,185.422 132.249,185.495 131.095 C 185.642 128.778,186.467 128.350,186.506 130.572 M171.219 130.118 C 170.967 130.777,171.324 131.442,171.874 131.336 C 172.182 131.277,172.361 130.989,172.361 130.556 C 172.361 129.764,171.484 129.428,171.219 130.118 M212.220 131.115 C 211.480 132.567,211.518 132.900,212.513 133.659 C 214.381 135.086,215.129 135.796,214.951 135.975 C 214.646 136.280,213.684 135.857,212.328 134.821 C 210.594 133.498,210.579 133.510,209.167 137.337 C 208.955 137.912,208.782 138.060,208.571 137.849 C 208.359 137.637,208.531 136.883,209.164 135.240 L 210.056 132.929 209.056 132.090 C 208.506 131.628,208.056 131.156,208.056 131.042 C 208.056 130.668,209.090 130.823,209.444 131.250 C 210.005 131.926,210.717 131.733,211.513 130.689 C 212.476 129.427,212.939 129.706,212.220 131.115 M253.821 130.069 C 253.662 130.555,250.345 131.012,249.938 130.605 C 249.489 130.156,250.637 129.761,252.454 129.740 C 253.520 129.727,253.903 129.819,253.821 130.069 M165.556 130.121 C 165.556 130.908,163.691 133.971,163.343 133.756 C 163.079 133.593,164.994 130.007,165.347 130.003 C 165.462 130.001,165.556 130.054,165.556 130.121 M138.620 131.853 C 140.710 134.118,140.701 134.101,140.160 134.699 C 139.582 135.338,140.255 136.735,141.076 136.601 C 141.374 136.553,141.559 136.764,141.621 137.222 C 141.672 137.604,142.000 138.229,142.349 138.611 C 143.105 139.438,143.468 140.718,143.024 140.992 C 142.532 141.296,140.669 138.981,136.813 133.279 C 135.367 131.139,135.338 131.018,136.181 130.633 C 136.948 130.282,137.362 130.489,138.620 131.853 M160.694 133.056 C 161.447 133.819,162.223 134.444,162.420 134.444 C 162.617 134.444,162.778 134.679,162.778 134.966 C 162.778 135.253,162.984 135.659,163.237 135.868 C 163.628 136.193,164.941 137.831,166.351 139.754 C 166.559 140.038,166.650 140.476,166.553 140.728 C 166.316 141.347,165.642 140.740,163.970 138.403 C 163.273 137.427,162.520 136.667,162.251 136.667 C 161.770 136.667,160.009 138.890,159.990 139.522 C 159.968 140.230,158.101 142.108,157.911 141.613 C 157.689 141.035,158.054 140.356,159.907 137.892 C 161.719 135.484,161.720 135.444,160.000 133.750 C 158.632 132.402,158.268 131.667,158.969 131.667 C 159.165 131.667,159.942 132.292,160.694 133.056 M179.653 155.880 C 181.124 156.258,181.234 156.794,179.792 156.555 C 177.428 156.162,177.627 155.922,177.738 159.028 C 177.792 160.556,177.680 164.151,177.490 167.018 C 177.101 172.861,177.161 173.118,178.976 173.427 C 183.304 174.164,183.623 174.266,183.128 174.761 C 182.742 175.147,178.267 174.369,177.325 173.752 C 176.582 173.265,176.261 171.901,176.492 170.214 C 177.240 164.760,177.327 157.900,176.663 156.659 C 175.912 155.256,176.563 155.087,179.653 155.880 M204.069 156.082 C 205.100 156.852,205.552 158.104,205.836 160.972 C 206.139 164.035,207.251 168.474,208.342 170.972 C 210.171 175.160,207.914 178.872,204.361 177.521 C 203.189 177.075,203.477 176.729,205.002 176.752 C 207.940 176.796,208.846 175.189,207.684 171.990 C 207.259 170.819,206.745 169.236,206.542 168.472 C 206.339 167.708,205.923 166.146,205.618 165.000 C 205.312 163.854,204.997 161.867,204.916 160.584 C 204.764 158.168,204.317 157.132,203.168 156.528 C 202.149 155.992,201.937 155.793,202.102 155.525 C 202.303 155.201,203.248 155.468,204.069 156.082 M188.472 157.742 C 189.510 158.388,190.280 159.177,191.689 161.042 C 192.968 162.735,193.421 162.841,194.062 161.597 C 194.741 160.278,196.396 158.333,196.839 158.333 C 197.380 158.333,197.330 158.459,196.377 159.497 C 194.223 161.842,193.779 163.467,194.893 164.928 C 195.763 166.068,195.424 166.858,194.444 165.972 C 193.683 165.283,193.237 165.724,193.582 166.823 C 193.723 167.272,194.181 168.951,194.599 170.556 C 195.018 172.160,195.487 173.634,195.641 173.831 C 195.832 174.076,195.818 174.293,195.597 174.514 C 194.985 175.127,194.455 174.072,193.743 170.821 C 193.359 169.071,192.857 167.221,192.626 166.710 C 192.363 166.127,192.272 165.436,192.381 164.851 C 192.590 163.738,189.717 159.473,188.126 158.534 C 187.629 158.241,187.222 157.826,187.222 157.611 C 187.222 157.095,187.474 157.122,188.472 157.742 M161.667 158.056 C 161.667 158.208,161.417 158.333,161.111 158.333 C 159.608 158.333,158.433 160.281,158.244 163.082 C 158.148 164.519,157.985 166.845,157.883 168.251 L 157.697 170.809 158.501 171.132 C 158.944 171.310,160.211 171.894,161.317 172.431 C 162.998 173.246,163.500 173.374,164.372 173.205 C 166.964 172.704,167.026 172.700,166.827 173.020 C 166.004 174.353,162.893 174.651,161.250 173.555 C 158.651 171.822,156.944 171.643,156.944 173.104 C 156.944 173.861,155.581 175.503,154.536 176.007 C 153.145 176.677,151.408 175.467,151.395 173.819 C 151.386 172.752,151.807 172.868,152.408 174.097 C 153.073 175.459,154.029 175.615,155.031 174.526 C 155.891 173.591,156.513 172.113,156.290 171.533 C 155.967 170.689,152.509 171.094,151.890 172.047 C 151.784 172.211,151.621 172.269,151.529 172.177 C 150.939 171.587,152.728 170.496,154.520 170.352 C 156.914 170.160,156.832 170.311,157.238 165.334 C 157.633 160.486,158.125 159.104,159.752 158.264 C 160.799 157.725,161.667 157.630,161.667 158.056 M343.889 158.611 C 343.889 158.764,343.451 158.889,342.917 158.889 C 342.382 158.889,341.944 158.764,341.944 158.611 C 341.944 158.458,342.382 158.333,342.917 158.333 C 343.451 158.333,343.889 158.458,343.889 158.611 M187.819 185.694 C 188.440 188.169,188.783 188.297,190.013 186.508 C 191.203 184.779,191.323 185.125,190.296 187.322 C 189.828 188.324,189.444 189.464,189.444 189.856 C 189.444 190.350,189.243 190.646,188.789 190.818 C 188.245 191.025,185.833 194.099,185.833 194.586 C 185.833 194.977,184.348 196.918,184.145 196.792 C 183.786 196.570,184.121 195.931,186.306 192.659 C 188.457 189.438,188.571 189.154,187.920 188.614 C 187.692 188.425,187.567 188.171,187.642 188.050 C 187.717 187.929,187.530 187.037,187.226 186.068 C 186.922 185.098,186.672 184.123,186.670 183.899 C 186.663 183.036,187.467 184.294,187.819 185.694 M208.556 185.611 C 208.739 185.794,208.889 186.163,208.889 186.431 C 208.889 186.698,209.272 187.484,209.740 188.178 C 210.974 190.006,212.377 193.567,212.009 193.935 C 211.577 194.367,211.194 194.015,210.822 192.843 C 210.398 191.508,208.401 187.507,207.843 186.875 C 207.154 186.095,206.257 186.288,205.257 187.431 C 204.756 188.003,203.337 189.385,202.104 190.500 C 200.650 191.814,199.811 192.791,199.719 193.278 C 199.547 194.192,198.516 194.344,198.395 193.472 C 198.315 192.897,202.160 188.882,205.102 186.469 C 206.575 185.260,207.880 184.936,208.556 185.611 M207.454 188.138 C 207.618 188.337,207.739 188.993,207.723 189.597 C 207.691 190.788,208.293 197.933,208.482 198.611 C 209.558 202.457,210.834 216.995,210.981 227.083 C 211.048 231.682,211.268 236.224,211.518 238.194 C 211.750 240.028,211.941 243.063,211.942 244.939 C 211.944 247.411,212.040 248.387,212.292 248.483 C 213.037 248.767,221.447 245.239,222.207 244.324 C 222.406 244.085,222.804 243.889,223.093 243.889 C 223.382 243.889,223.836 243.767,224.101 243.618 C 224.366 243.469,225.021 243.153,225.556 242.916 C 226.090 242.679,226.779 242.332,227.086 242.145 C 227.394 241.958,228.644 241.220,229.864 240.504 C 231.085 239.788,232.708 238.764,233.472 238.229 C 234.236 237.694,235.736 236.672,236.806 235.958 C 239.749 233.992,245.210 229.031,246.266 227.361 C 247.187 225.907,249.477 222.961,250.695 221.667 C 252.267 219.994,253.734 217.738,255.749 213.889 C 256.669 212.132,257.694 210.213,258.028 209.624 C 258.361 209.035,258.811 207.535,259.028 206.291 C 259.246 205.046,259.660 203.278,259.949 202.361 C 260.239 201.444,260.560 199.819,260.663 198.750 C 260.833 196.977,261.595 194.031,262.243 192.639 C 262.386 192.333,262.625 191.417,262.776 190.604 C 263.094 188.882,263.297 188.463,263.643 188.810 C 263.949 189.115,263.473 191.815,262.774 193.734 C 262.226 195.242,261.802 197.273,261.524 199.722 C 261.429 200.563,261.179 201.813,260.968 202.500 C 260.758 203.188,260.365 204.805,260.095 206.095 C 259.215 210.302,255.662 216.700,250.985 222.500 C 249.691 224.104,248.628 225.554,248.622 225.721 C 248.616 225.888,248.348 226.263,248.027 226.554 C 247.705 226.845,247.237 227.479,246.985 227.963 C 246.194 229.486,240.005 235.022,236.484 237.356 C 234.675 238.555,233.023 239.766,232.813 240.046 C 232.604 240.326,232.316 240.556,232.175 240.556 C 232.034 240.556,231.268 240.967,230.473 241.469 C 228.053 242.999,219.762 246.950,215.456 248.626 C 212.428 249.804,212.178 250.126,212.440 252.506 C 212.682 254.700,212.639 254.687,217.745 254.054 C 219.673 253.815,222.609 253.550,224.269 253.465 C 225.930 253.381,228.199 253.196,229.312 253.055 C 230.424 252.914,234.316 252.797,237.959 252.795 C 241.602 252.793,247.771 252.604,251.667 252.376 C 255.772 252.134,263.771 251.948,270.694 251.933 C 277.264 251.919,284.389 251.795,286.528 251.657 C 288.667 251.520,293.292 251.331,296.806 251.238 C 300.319 251.144,303.292 250.973,303.412 250.858 C 303.794 250.490,303.301 249.733,302.400 249.304 C 301.232 248.746,299.371 247.011,299.579 246.673 C 300.122 245.795,303.751 247.270,304.058 248.494 C 304.141 248.823,304.761 249.635,305.437 250.298 C 308.333 253.140,304.817 256.643,301.042 254.678 C 300.031 254.152,300.473 253.610,301.769 253.788 C 302.537 253.893,303.053 253.840,303.175 253.643 C 303.281 253.471,303.641 253.400,303.975 253.484 C 304.791 253.688,305.702 253.005,305.459 252.372 C 305.330 252.035,305.125 251.951,304.789 252.097 C 304.523 252.212,301.431 252.410,297.917 252.535 C 294.403 252.660,290.528 252.821,289.306 252.892 C 288.083 252.962,282.958 253.096,277.917 253.188 C 259.486 253.526,223.570 254.658,220.417 255.000 C 219.042 255.150,216.979 255.353,215.833 255.451 C 212.923 255.701,212.943 255.673,213.169 259.163 C 213.273 260.769,213.487 262.646,213.644 263.333 C 213.801 264.021,214.043 265.708,214.181 267.083 C 214.320 268.458,214.636 271.396,214.884 273.611 C 215.386 278.088,215.351 279.306,214.722 279.306 C 214.472 279.306,214.328 279.084,214.363 278.750 C 214.394 278.444,214.184 276.507,213.897 274.444 C 213.609 272.382,213.293 269.569,213.195 268.194 C 213.097 266.819,212.851 264.819,212.648 263.750 C 212.445 262.681,212.187 260.806,212.075 259.583 C 211.740 255.927,211.950 256.111,208.132 256.110 C 203.287 256.109,189.968 256.925,189.167 257.273 C 188.785 257.439,185.785 257.671,182.500 257.788 C 179.215 257.905,175.965 258.133,175.278 258.294 C 174.590 258.455,173.254 258.592,172.308 258.599 C 171.362 258.606,170.530 258.705,170.459 258.821 C 170.184 259.265,162.083 259.063,162.083 258.611 C 162.083 258.077,163.599 257.834,169.028 257.495 C 173.807 257.197,175.694 256.924,175.694 256.528 C 175.694 256.375,175.257 256.210,174.722 256.161 C 173.515 256.050,173.133 255.715,173.589 255.166 C 173.843 254.860,174.107 254.819,174.606 255.009 C 175.053 255.179,176.052 255.128,177.571 254.860 C 178.830 254.637,180.322 254.452,180.885 254.450 C 181.448 254.447,182.246 254.316,182.660 254.159 C 183.073 254.002,185.113 253.628,187.192 253.328 C 189.271 253.028,192.097 252.601,193.472 252.378 C 194.847 252.156,197.347 251.832,199.028 251.660 C 200.708 251.488,203.346 250.991,204.889 250.558 C 206.433 250.124,208.272 249.682,208.978 249.576 C 209.683 249.471,210.408 249.205,210.590 248.986 C 211.000 248.493,210.740 240.470,210.174 236.111 C 209.922 234.175,209.843 231.700,209.937 228.750 C 210.137 222.537,209.608 214.190,208.466 205.556 C 206.319 189.318,206.160 186.580,207.454 188.138 M209.722 250.460 C 208.795 250.597,205.941 251.311,203.108 252.115 C 201.595 252.544,199.443 252.862,196.858 253.038 C 194.690 253.186,191.979 253.489,190.833 253.712 C 189.688 253.935,187.647 254.268,186.298 254.452 C 184.950 254.636,183.450 254.990,182.965 255.240 C 182.480 255.490,181.175 255.757,180.065 255.833 C 178.955 255.910,178.050 256.097,178.054 256.250 C 178.068 256.745,186.230 256.558,188.889 256.001 C 190.188 255.729,192.375 255.462,193.750 255.406 C 195.125 255.350,198.125 255.229,200.417 255.136 C 202.708 255.042,205.995 254.916,207.720 254.853 C 211.464 254.719,211.396 254.751,211.361 253.109 C 211.309 250.668,211.058 250.263,209.722 250.460 M314.722 264.575 C 314.722 264.782,314.285 265.616,313.750 266.428 C 312.514 268.305,312.500 268.262,315.404 271.844 C 315.793 272.323,316.111 272.979,316.111 273.302 C 316.111 274.492,315.226 273.850,313.762 271.597 C 312.425 269.540,311.846 269.495,311.059 271.389 C 310.741 272.153,310.311 272.778,310.102 272.778 C 309.574 272.778,309.621 272.447,310.417 270.556 C 311.367 268.297,311.148 267.272,309.406 265.833 C 309.069 265.555,308.956 265.209,309.066 264.792 C 309.314 263.853,309.808 264.030,310.804 265.417 C 311.921 266.973,311.951 266.971,313.176 265.266 C 314.113 263.962,314.722 263.690,314.722 264.575 " stroke="none" fill="#040404" fill-rule="evenodd"></path></g></svg>